<svg version="1.1" id="Layer_1" xmlns="http://www.w3.org/2000/svg" xmlns:xlink="http://www.w3.org/1999/xlink" x="0px" y="0px"
	 width="100%" viewBox="0 0 2000 2000" enable-background="new 0 0 2000 2000" xml:space="preserve">
<path fill="#FFFFFF" opacity="1.000000" stroke="none" 
	d="
M1058.000000,2001.000000 
	C705.333313,2001.000000 353.166656,2001.000000 1.000000,2001.000000 
	C1.000000,1334.333374 1.000000,667.666687 1.000000,1.000000 
	C667.666687,1.000000 1334.333374,1.000000 2001.000000,1.000000 
	C2001.000000,667.666687 2001.000000,1334.333374 2001.000000,2001.000000 
	C1686.833374,2001.000000 1372.666626,2001.000000 1058.000000,2001.000000 
M837.140442,1101.937134 
	C837.763550,1119.411621 838.578186,1136.881836 838.973389,1154.361450 
	C840.106323,1204.475830 841.087585,1254.593750 842.079346,1304.711182 
	C842.227600,1312.202759 841.866455,1319.711060 842.217163,1327.189331 
	C842.402466,1331.140381 843.614929,1335.043213 844.227417,1338.254150 
	C846.818787,1337.800415 848.278748,1337.267578 849.709473,1337.336914 
	C865.169922,1338.085205 880.622742,1339.562866 896.083313,1339.635620 
	C961.386353,1339.942627 1026.694336,1340.212280 1091.994263,1339.705200 
	C1118.930054,1339.496216 1145.849243,1337.268188 1172.781128,1336.075317 
	C1174.266602,1336.009521 1175.799561,1337.017700 1177.381104,1337.549683 
	C1178.339355,1335.948486 1180.411621,1334.047241 1180.473267,1332.082764 
	C1180.640991,1326.738281 1179.870605,1321.370972 1179.627563,1316.005737 
	C1178.406616,1289.052612 1177.556396,1262.076904 1175.862305,1235.154053 
	C1175.313843,1226.435913 1177.157349,1220.562988 1184.296997,1214.651611 
	C1204.554688,1197.879150 1223.773926,1179.859497 1243.634521,1162.598511 
	C1263.986572,1144.910522 1284.606445,1127.530640 1305.147217,1110.060791 
	C1305.981201,1109.351440 1307.252686,1108.619019 1308.238647,1108.717285 
	C1312.824707,1109.173828 1312.609253,1106.431030 1312.044189,1103.386353 
	C1311.773926,1101.929199 1311.373657,1100.496094 1311.965088,1099.020142 
	C1348.701172,1098.680176 1385.437866,1098.020020 1422.173340,1098.069336 
	C1490.387329,1098.161011 1558.601562,1098.566406 1626.813721,1099.097412 
	C1638.385986,1099.187378 1650.260498,1096.734741 1662.401245,1102.668091 
	C1662.968994,1094.432617 1663.959351,1086.948242 1663.868042,1079.477051 
	C1663.774536,1071.822266 1662.785400,1064.128540 1654.798584,1059.858032 
	C1654.061768,1059.463989 1653.743408,1058.284790 1653.234375,1057.467896 
	C1650.296753,1052.754395 1646.851196,1048.638916 1641.295776,1046.835083 
	C1636.563843,1045.298584 1631.867432,1043.652222 1627.013306,1041.119751 
	C1626.675537,1006.703003 1626.221436,972.286987 1626.024292,937.869446 
	C1625.611084,865.790527 1625.334961,793.710815 1624.999634,721.631470 
	C1624.668213,650.385315 1624.330200,579.139160 1624.000854,507.893036 
	C1623.663696,434.980469 1623.290161,362.068085 1623.020020,289.155304 
	C1622.901489,257.159882 1623.004395,225.163666 1622.995850,193.167816 
	C1622.994507,188.080994 1616.976318,182.376602 1612.653442,183.027359 
	C1607.190186,183.849747 1601.680054,184.913498 1596.188965,184.920670 
	C1273.142334,185.343033 950.095459,185.639374 627.048828,186.039322 
	C591.464355,186.083374 555.880127,186.626190 520.296631,187.014648 
	C496.710114,187.272125 473.124146,187.613068 449.539825,188.023468 
	C438.116943,188.222260 426.698822,188.687271 415.277557,188.994537 
	C402.024536,189.351105 388.705292,188.986572 375.540253,190.246262 
	C367.164490,191.047714 357.611908,188.548492 350.775757,196.859970 
	C348.811707,199.247894 346.899323,200.726837 346.910522,204.259171 
	C347.349396,342.829559 347.631744,481.400421 348.038116,619.970947 
	C348.098999,640.724426 348.693573,661.476074 348.993286,682.229248 
	C349.355591,707.314270 349.647278,732.400391 350.006256,757.485474 
	C350.310425,778.738464 350.678009,799.990601 350.997101,821.243469 
	C351.343750,844.328979 351.752930,867.414001 351.981232,890.500793 
	C352.382538,931.083557 352.676178,971.667480 352.991913,1012.251038 
	C353.050323,1019.758118 353.605774,1027.335205 352.758881,1034.745850 
	C352.296875,1038.788818 354.226440,1044.539795 348.096710,1046.740234 
	C347.770142,1046.857422 347.921478,1048.305786 346.980499,1049.156616 
	C342.170227,1049.478516 337.340240,1049.625610 332.554535,1050.165405 
	C326.153076,1050.887329 323.892090,1053.409546 323.489716,1059.761230 
	C322.145233,1059.518311 320.792328,1059.273804 318.762634,1058.906860 
	C319.216248,1062.229736 319.746765,1065.088379 319.974121,1067.971069 
	C320.711060,1077.314819 321.220856,1086.677490 322.041107,1096.013428 
	C322.728363,1103.836426 325.540680,1106.069458 332.044037,1104.985596 
	C337.356537,1104.100342 342.737091,1103.117920 348.093781,1103.080322 
	C413.152008,1102.623291 478.211304,1102.319336 543.270508,1102.010498 
	C558.261658,1101.939331 573.253540,1102.013672 588.245056,1101.997314 
	C617.559753,1101.965088 646.874390,1101.916016 676.739136,1102.270630 
	C687.148621,1118.716553 697.429443,1135.247070 708.105713,1151.517822 
	C709.715576,1153.971436 712.950134,1156.126343 715.819519,1156.818970 
	C721.085022,1158.089966 726.633362,1158.220703 732.072571,1158.734009 
	C744.975220,1159.951782 757.868408,1161.597778 770.798157,1161.990845 
	C774.422180,1162.101074 779.277039,1159.358521 781.663513,1156.392578 
	C796.357971,1138.130005 810.507141,1119.428589 825.777649,1100.985107 
	C829.503662,1100.996338 833.229675,1101.007568 837.140442,1101.937134 
M579.729736,1566.270752 
	C585.296082,1562.420776 591.669312,1559.354248 596.294434,1554.590210 
	C621.366150,1528.765869 623.861267,1479.630859 602.025574,1451.018066 
	C583.719055,1427.029785 547.531494,1423.007446 525.256042,1442.498413 
	C523.605225,1443.942871 522.045105,1445.490723 519.566467,1447.810913 
	C519.566467,1419.046753 519.566467,1391.516724 519.566467,1364.020020 
	C504.643860,1364.020020 490.259277,1364.020020 475.747162,1364.020020 
	C475.747162,1431.819702 475.747162,1499.221802 475.747162,1566.735718 
	C490.493713,1566.735718 505.020355,1566.735718 520.173340,1566.735718 
	C520.173340,1562.564087 520.173340,1558.757935 520.173340,1555.579468 
	C525.584412,1559.122559 530.430420,1563.489746 536.113342,1565.780762 
	C550.142761,1571.436890 564.620544,1571.783813 579.729736,1566.270752 
M1173.082275,1466.864868 
	C1174.185303,1464.811890 1175.213501,1462.714233 1176.403687,1460.713013 
	C1183.843384,1448.203857 1195.956055,1441.646729 1208.588623,1443.571655 
	C1208.588623,1484.577759 1208.588623,1525.660400 1208.588623,1566.698730 
	C1223.616577,1566.698730 1238.163330,1566.698730 1252.830811,1566.698730 
	C1252.830811,1536.812622 1252.977295,1507.327271 1252.751953,1477.844849 
	C1252.672363,1467.423340 1250.469604,1457.394897 1244.465210,1448.482422 
	C1229.432739,1426.170288 1193.895874,1424.490967 1175.433228,1441.907837 
	C1172.960205,1444.240723 1170.818848,1446.925171 1167.528809,1450.540405 
	C1167.528809,1420.808105 1167.528809,1392.342773 1167.528809,1363.932861 
	C1152.473999,1363.932861 1138.228638,1363.932861 1123.891357,1363.932861 
	C1123.891357,1431.785645 1123.891357,1499.326660 1123.891357,1566.902588 
	C1138.518188,1566.902588 1152.805542,1566.902588 1167.581543,1566.902588 
	C1167.581543,1564.920898 1167.581543,1563.122192 1167.581543,1561.323486 
	C1167.581665,1539.659912 1167.615967,1517.996094 1167.566650,1496.332642 
	C1167.544067,1486.410645 1168.805420,1476.750610 1173.082275,1466.864868 
M908.296753,1435.244995 
	C893.560181,1429.821777 878.274902,1429.390259 862.933960,1430.867188 
	C846.996155,1432.401489 832.328796,1437.340332 820.965515,1449.425903 
	C813.624023,1457.234131 808.400208,1466.296997 804.601562,1476.480591 
	C806.625977,1477.093994 808.033203,1477.568115 809.465698,1477.946777 
	C816.750977,1479.872925 816.688843,1479.828369 820.296082,1473.325439 
	C826.825562,1461.554443 835.059265,1451.223877 848.189880,1446.666870 
	C866.277283,1440.389648 875.900635,1441.752686 886.143250,1457.516968 
	C895.619263,1472.101318 891.893005,1481.336548 875.028442,1485.185913 
	C866.435913,1487.147339 857.656189,1488.289551 848.959412,1489.792847 
	C836.794250,1491.895630 824.742676,1494.279053 813.987244,1500.899292 
	C794.222229,1513.065186 792.083374,1543.437134 810.036072,1557.939453 
	C831.126343,1574.976074 867.658142,1573.864502 887.713745,1555.586304 
	C888.599548,1554.778931 889.566528,1554.060547 891.199707,1552.724854 
	C891.199707,1558.066528 891.199707,1562.477661 891.199707,1566.825073 
	C906.044495,1566.825073 920.464111,1566.825073 934.897217,1566.825073 
	C934.897217,1535.248169 935.445618,1503.932007 934.680481,1472.648071 
	C934.257812,1455.367676 925.783630,1442.226318 908.296753,1435.244995 
M686.929810,1550.881958 
	C686.929810,1536.649414 686.929810,1522.416870 686.929810,1507.915649 
	C701.615295,1507.915649 715.588928,1507.915649 729.562500,1507.915649 
	C743.488770,1507.915649 757.415039,1507.915649 771.237427,1507.915649 
	C771.237427,1498.166382 771.939819,1488.979736 770.996948,1479.965210 
	C770.339966,1473.683716 768.338196,1467.154541 765.373413,1461.565552 
	C745.868164,1424.797119 688.799805,1418.879150 660.227661,1450.659912 
	C643.154175,1469.650879 640.099487,1492.476929 644.482788,1516.620972 
	C648.407471,1538.239502 659.798767,1554.828369 680.329468,1563.864380 
	C698.958008,1572.063110 718.210876,1572.208130 737.317871,1565.611084 
	C750.832031,1560.945068 761.099854,1552.030640 768.272888,1539.010498 
	C764.709534,1536.671753 761.312927,1534.442505 757.790283,1532.130493 
	C756.774658,1533.368652 755.987305,1534.214111 755.327942,1535.149780 
	C746.605286,1547.528198 734.981567,1555.103882 719.705017,1556.446289 
	C708.525085,1557.428589 697.411682,1557.617798 686.929810,1550.881958 
M1404.552856,1537.075806 
	C1402.079956,1535.476440 1399.606934,1533.877075 1396.973511,1532.173828 
	C1395.931641,1533.434692 1395.010376,1534.379272 1394.282837,1535.455078 
	C1378.401245,1558.934082 1350.252930,1559.858521 1330.852417,1554.091797 
	C1327.054932,1552.963013 1325.722778,1550.956543 1325.846313,1546.894165 
	C1326.165161,1536.410156 1325.953247,1525.909912 1325.953247,1515.416138 
	C1325.953247,1513.004272 1325.953247,1510.592529 1325.953247,1507.707031 
	C1354.680664,1507.707031 1382.580078,1507.707031 1410.287964,1507.707031 
	C1410.287964,1497.931274 1410.976196,1488.576782 1410.045898,1479.386353 
	C1409.427368,1473.274536 1407.350098,1466.945679 1404.463745,1461.486938 
	C1385.062256,1424.796021 1327.721924,1418.826782 1299.341064,1450.787354 
	C1280.084717,1472.472656 1278.147461,1498.164551 1285.735474,1524.899048 
	C1291.752930,1546.099731 1305.884521,1560.215698 1326.992432,1566.725586 
	C1343.182983,1571.718872 1359.572876,1571.385254 1375.626343,1565.937622 
	C1388.316895,1561.631348 1398.395386,1553.716064 1405.536743,1542.230225 
	C1406.632690,1540.467896 1408.052979,1538.846680 1404.552856,1537.075806 
M966.897827,1483.184692 
	C966.513550,1485.821411 966.006165,1488.446777 965.763611,1491.096436 
	C962.384460,1528.006470 980.294312,1565.111450 1024.985718,1569.595825 
	C1058.307983,1572.939331 1081.719971,1557.851685 1093.010620,1524.664185 
	C1089.266113,1523.175537 1085.500854,1521.678711 1081.949585,1520.266846 
	C1081.280518,1521.003662 1080.994141,1521.210693 1080.853760,1521.491089 
	C1079.885864,1523.424316 1078.992065,1525.395752 1077.994019,1527.312866 
	C1071.670898,1539.458740 1063.553711,1549.841675 1049.794556,1554.001221 
	C1038.111816,1557.533325 1026.318604,1558.835693 1014.662109,1553.599121 
	C1011.218750,1552.052124 1009.405640,1550.031250 1009.439880,1545.679077 
	C1009.679138,1515.186768 1009.639038,1484.691406 1009.469116,1454.198120 
	C1009.449036,1450.592285 1010.787659,1448.861450 1013.787537,1447.385986 
	C1034.926147,1436.989136 1060.410645,1444.513672 1072.990479,1465.031860 
	C1075.734619,1469.507690 1078.286255,1474.101562 1081.078247,1478.901855 
	C1085.019897,1477.004395 1088.552246,1475.304077 1092.133179,1473.580444 
	C1089.093750,1462.736694 1084.657104,1453.291260 1076.511108,1445.745605 
	C1047.457275,1418.833008 979.117615,1423.872559 966.897827,1483.184692 
M1440.982056,1442.547852 
	C1440.982056,1483.962769 1440.982056,1525.377563 1440.982056,1566.779297 
	C1455.964111,1566.779297 1470.367676,1566.779297 1485.090576,1566.779297 
	C1485.090576,1548.666016 1485.206787,1530.870728 1485.056152,1513.077637 
	C1484.919800,1496.960449 1489.166016,1482.136108 1497.785278,1468.610229 
	C1507.979248,1452.612793 1521.673218,1442.362183 1541.632935,1442.866821 
	C1542.904053,1442.899048 1544.183594,1442.596436 1545.532715,1442.441040 
	C1545.532715,1438.083008 1545.532715,1434.036255 1545.532715,1429.616089 
	C1519.784058,1429.769409 1499.586792,1439.468140 1486.104858,1461.938354 
	C1485.722900,1461.720093 1485.341064,1461.501831 1484.959106,1461.283569 
	C1484.959106,1451.963257 1484.959106,1442.642822 1484.959106,1433.372192 
	C1469.917603,1433.372192 1455.667603,1433.372192 1440.982056,1433.372192 
	C1440.982056,1436.306396 1440.982056,1438.935181 1440.982056,1442.547852 
z"/>
<path fill="#003B22" opacity="1.000000" stroke="none" 
	d="
M347.850311,1049.134521 
	C347.921478,1048.305786 347.770142,1046.857422 348.096710,1046.740234 
	C354.226440,1044.539795 352.296875,1038.788818 352.758881,1034.745850 
	C353.605774,1027.335205 353.050323,1019.758118 352.991913,1012.251038 
	C352.676178,971.667480 352.382538,931.083557 351.981232,890.500793 
	C351.752930,867.414001 351.343750,844.328979 350.997101,821.243469 
	C350.678009,799.990601 350.310425,778.738464 350.006256,757.485474 
	C349.647278,732.400391 349.355591,707.314270 348.993286,682.229248 
	C348.693573,661.476074 348.098999,640.724426 348.038116,619.970947 
	C347.631744,481.400421 347.349396,342.829559 346.910522,204.259171 
	C346.899323,200.726837 348.811707,199.247894 350.775757,196.859970 
	C357.611908,188.548492 367.164490,191.047714 375.540253,190.246262 
	C388.705292,188.986572 402.024536,189.351105 415.277557,188.994537 
	C426.698822,188.687271 438.116943,188.222260 449.539825,188.023468 
	C473.124146,187.613068 496.710114,187.272125 520.296631,187.014648 
	C555.880127,186.626190 591.464355,186.083374 627.048828,186.039322 
	C950.095459,185.639374 1273.142334,185.343033 1596.188965,184.920670 
	C1601.680054,184.913498 1607.190186,183.849747 1612.653442,183.027359 
	C1616.976318,182.376602 1622.994507,188.080994 1622.995850,193.167816 
	C1623.004395,225.163666 1622.901489,257.159882 1623.020020,289.155304 
	C1623.290161,362.068085 1623.663696,434.980469 1624.000854,507.893036 
	C1624.330200,579.139160 1624.668213,650.385315 1624.999634,721.631470 
	C1625.334961,793.710815 1625.611084,865.790527 1626.024292,937.869446 
	C1626.221436,972.286987 1626.675537,1006.703003 1627.019043,1042.035034 
	C1627.024780,1045.870728 1627.024780,1048.791138 1627.024780,1052.000000 
	C1624.428711,1052.000000 1622.617065,1052.030762 1620.806763,1051.995117 
	C1604.296265,1051.669922 1587.787354,1051.248901 1571.275635,1051.018799 
	C1542.537842,1050.618286 1513.798706,1050.285156 1485.059326,1050.011597 
	C1445.168823,1049.631836 1405.277832,1049.304321 1365.386475,1049.015991 
	C1351.571899,1048.916138 1337.755005,1049.102905 1323.941040,1048.965332 
	C1314.011597,1048.866577 1304.085571,1048.446777 1294.072754,1047.789062 
	C1291.993164,1041.768555 1290.006104,1036.126831 1288.003418,1030.490479 
	C1271.875000,985.096069 1255.758789,939.697205 1239.560913,894.327454 
	C1238.852295,892.342957 1237.767334,890.167236 1236.202759,888.871399 
	C1230.093018,883.811279 1224.332642,877.787842 1217.333496,874.441406 
	C1192.896606,862.757568 1168.232422,851.471008 1143.196167,841.145020 
	C1124.972778,833.628967 1106.060059,827.766846 1087.363281,821.436768 
	C1084.771606,820.559265 1084.349731,819.459534 1083.880005,817.056824 
	C1081.263550,803.676453 1080.416138,789.737000 1072.754761,778.474060 
	C1082.720581,771.713379 1093.066406,765.422302 1102.592773,758.069397 
	C1118.685303,745.648438 1130.421387,729.819946 1134.916992,709.690674 
	C1139.424927,689.506104 1142.999756,669.114014 1147.083618,648.833069 
	C1148.103760,643.767212 1150.322510,639.659302 1155.444580,637.110840 
	C1162.271973,633.713867 1168.170776,629.090942 1168.870850,620.525940 
	C1169.060303,618.207703 1169.091187,615.875000 1169.324829,613.562073 
	C1170.522217,601.705872 1172.226440,589.879333 1172.874512,577.994446 
	C1173.761963,561.717041 1172.806274,545.462708 1169.976074,529.361694 
	C1166.903564,511.882141 1161.814453,495.002045 1152.385864,479.914337 
	C1143.519409,465.726257 1134.095703,451.828278 1124.059204,438.446106 
	C1114.449951,425.633392 1102.617310,415.045380 1086.463867,411.050659 
	C1061.538818,404.886719 1036.602051,398.734192 1011.532593,393.200958 
	C991.090027,388.688934 970.375366,385.861053 949.310364,386.977997 
	C944.648438,387.225189 943.371521,388.725464 944.583801,393.188599 
	C945.398071,396.186829 946.238892,399.177826 947.177734,402.568634 
	C937.795715,403.758423 928.915100,404.593536 920.143921,406.076599 
	C910.858826,407.646576 901.513428,409.269073 892.495789,411.901306 
	C882.573120,414.797699 881.610535,418.029388 886.039429,427.114807 
	C887.568237,430.250885 889.322144,433.361847 890.221680,436.687561 
	C890.740051,438.603912 890.443359,441.412842 889.332275,442.985291 
	C883.490540,451.252258 877.354492,459.316467 871.169678,467.334686 
	C849.845459,494.979828 838.442688,526.104614 839.125000,561.137207 
	C839.457397,578.199341 841.256348,595.228149 842.034119,612.288269 
	C842.488831,622.261902 846.628174,629.303650 856.022095,633.080322 
	C857.233215,633.567261 858.337463,634.410522 859.354919,635.253296 
	C859.934326,635.733154 860.543274,636.514526 860.616272,637.214600 
	C861.142090,642.258911 861.355408,647.340088 861.998596,652.367249 
	C865.273743,677.964966 872.237610,702.516357 884.733948,725.149170 
	C896.630493,746.695679 914.016846,762.818298 936.262390,773.532837 
	C940.626648,775.634949 941.116821,778.210266 937.177673,781.424744 
	C932.697571,785.080872 930.105652,789.682129 928.953247,795.267761 
	C928.049744,799.647034 927.120605,804.032959 925.907654,808.332642 
	C924.943420,811.750122 923.453186,814.168579 918.838623,814.205261 
	C913.109558,814.250549 907.164062,815.027771 901.708313,816.746826 
	C874.946289,825.178711 848.223145,833.757629 821.681152,842.853455 
	C809.759277,846.939026 798.137268,852.020081 786.708069,857.354065 
	C782.957275,859.104492 778.366577,862.561218 777.391663,866.122375 
	C773.904297,878.861389 772.345459,892.118958 769.060181,904.924622 
	C763.041626,928.383972 756.342590,951.669312 749.865906,975.010132 
	C747.519714,983.465332 744.997986,991.871826 742.599792,1000.150696 
	C732.920593,978.864258 723.432190,957.832275 713.742188,936.893555 
	C712.512329,934.235901 710.227600,932.066467 708.354248,929.567749 
	C706.591736,931.031311 705.783936,931.917542 704.794006,932.487732 
	C699.775513,935.378479 697.680847,934.539429 695.853394,928.973267 
	C694.869141,925.975281 693.949463,922.956116 692.987976,919.950623 
	C688.238647,905.105652 683.460876,890.269714 678.774536,875.404968 
	C678.353760,874.070190 678.232788,872.505310 678.458984,871.127136 
	C679.205444,866.578735 677.928650,864.695557 673.375000,865.095886 
	C669.772339,865.412781 666.124207,866.179504 662.706177,867.356323 
	C659.302124,868.528320 657.875732,867.551880 656.901184,864.297729 
	C654.566162,856.500610 652.252197,848.679260 649.455261,841.041321 
	C634.321533,799.713074 624.739624,756.516479 607.358276,715.944336 
	C607.090698,715.319641 607.560364,714.391052 607.647217,713.600098 
	C607.825073,711.981018 608.675781,709.803833 607.949219,708.888611 
	C607.165649,707.901489 604.764832,707.537048 603.300171,707.881592 
	C599.603821,708.750977 595.983582,710.032593 592.431335,711.404297 
	C587.441284,713.331055 586.766357,715.361694 589.069458,720.196533 
	C589.491089,721.081665 589.705872,722.072266 589.960999,723.028870 
	C593.164856,735.044983 595.592224,747.332520 599.696045,759.032288 
	C612.891418,796.652283 626.683289,834.063354 640.329163,871.524353 
	C641.222046,873.975464 640.763062,875.055237 638.391846,876.102966 
	C634.909058,877.641724 631.437012,879.360413 628.306519,881.507141 
	C622.653198,885.383728 616.469421,888.883118 613.911743,896.094482 
	C615.371216,896.786560 616.540771,897.341187 617.948181,898.100708 
	C618.250122,898.504883 618.314331,898.704102 617.960571,898.940796 
	C612.094360,898.979980 614.052429,902.089783 615.322571,904.596130 
	C622.532410,918.824036 629.873901,932.985229 637.070923,947.219543 
	C639.474243,951.972839 641.583618,956.874878 643.911987,961.891296 
	C635.933533,966.413635 627.363525,971.271301 619.272461,975.857483 
	C628.754150,999.860291 637.859131,1022.909668 646.499634,1045.975708 
	C616.951416,1046.328369 587.866943,1046.609497 558.784424,1047.024902 
	C545.850830,1047.209595 532.919617,1047.615234 519.990051,1048.008667 
	C499.454437,1048.633423 478.920502,1049.315674 458.386902,1050.004150 
	C439.183990,1050.648071 419.979675,1051.262329 400.781158,1052.021240 
	C386.904419,1052.569946 373.033722,1053.287964 359.165833,1054.032959 
	C355.620544,1054.223389 352.096191,1054.802734 348.292664,1055.234009 
	C348.110107,1052.716797 347.980225,1050.925659 347.850311,1049.134521 
z"/>
<path fill="#030303" opacity="1.000000" stroke="none" 
	d="
M646.964172,1045.958984 
	C637.859131,1022.909668 628.754150,999.860291 619.272461,975.857483 
	C627.363525,971.271301 635.933533,966.413635 643.911987,961.891296 
	C641.583618,956.874878 639.474243,951.972839 637.070923,947.219543 
	C629.873901,932.985229 622.532410,918.824036 615.322571,904.596130 
	C614.052429,902.089783 612.094360,898.979980 618.226685,899.117676 
	C630.507141,918.345337 645.103333,935.950989 648.424561,959.497009 
	C662.563049,952.132629 676.490417,944.878174 689.968872,937.857605 
	C684.170776,915.817017 678.455322,894.090515 672.646912,872.010620 
	C672.306641,872.070862 670.949829,872.086365 669.777222,872.559021 
	C665.677246,874.211609 661.695068,876.164001 657.568542,877.741821 
	C649.748413,880.731873 641.570129,882.951172 634.091248,886.614746 
	C628.202148,889.499695 623.139893,894.072632 617.710388,897.895813 
	C616.540771,897.341187 615.371216,896.786560 613.911743,896.094482 
	C616.469421,888.883118 622.653198,885.383728 628.306519,881.507141 
	C631.437012,879.360413 634.909058,877.641724 638.391846,876.102966 
	C640.763062,875.055237 641.222046,873.975464 640.329163,871.524353 
	C626.683289,834.063354 612.891418,796.652283 599.696045,759.032288 
	C595.592224,747.332520 593.164856,735.044983 589.960999,723.028870 
	C589.705872,722.072266 589.491089,721.081665 589.069458,720.196533 
	C586.766357,715.361694 587.441284,713.331055 592.431335,711.404297 
	C595.983582,710.032593 599.603821,708.750977 603.300171,707.881592 
	C604.764832,707.537048 607.165649,707.901489 607.949219,708.888611 
	C608.675781,709.803833 607.825073,711.981018 607.647217,713.600098 
	C607.560364,714.391052 607.090698,715.319641 607.358276,715.944336 
	C624.739624,756.516479 634.321533,799.713074 649.455261,841.041321 
	C652.252197,848.679260 654.566162,856.500610 656.901184,864.297729 
	C657.875732,867.551880 659.302124,868.528320 662.706177,867.356323 
	C666.124207,866.179504 669.772339,865.412781 673.375000,865.095886 
	C677.928650,864.695557 679.205444,866.578735 678.458984,871.127136 
	C678.232788,872.505310 678.353760,874.070190 678.774536,875.404968 
	C683.460876,890.269714 688.238647,905.105652 692.987976,919.950623 
	C693.949463,922.956116 694.869141,925.975281 695.853394,928.973267 
	C697.680847,934.539429 699.775513,935.378479 704.794006,932.487732 
	C705.783936,931.917542 706.591736,931.031311 708.354248,929.567749 
	C710.227600,932.066467 712.512329,934.235901 713.742188,936.893555 
	C723.432190,957.832275 732.920593,978.864258 742.599792,1000.150696 
	C744.997986,991.871826 747.519714,983.465332 749.865906,975.010132 
	C756.342590,951.669312 763.041626,928.383972 769.060181,904.924622 
	C772.345459,892.118958 773.904297,878.861389 777.391663,866.122375 
	C778.366577,862.561218 782.957275,859.104492 786.708069,857.354065 
	C798.137268,852.020081 809.759277,846.939026 821.681152,842.853455 
	C848.223145,833.757629 874.946289,825.178711 901.708313,816.746826 
	C907.164062,815.027771 913.109558,814.250549 918.838623,814.205261 
	C923.453186,814.168579 924.943420,811.750122 925.907654,808.332642 
	C927.120605,804.032959 928.049744,799.647034 928.953247,795.267761 
	C930.105652,789.682129 932.697571,785.080872 937.177673,781.424744 
	C941.116821,778.210266 940.626648,775.634949 936.262390,773.532837 
	C914.016846,762.818298 896.630493,746.695679 884.733948,725.149170 
	C872.237610,702.516357 865.273743,677.964966 861.998596,652.367249 
	C861.355408,647.340088 861.142090,642.258911 860.616272,637.214600 
	C860.543274,636.514526 859.934326,635.733154 859.354919,635.253296 
	C858.337463,634.410522 857.233215,633.567261 856.022095,633.080322 
	C846.628174,629.303650 842.488831,622.261902 842.034119,612.288269 
	C841.256348,595.228149 839.457397,578.199341 839.125000,561.137207 
	C838.442688,526.104614 849.845459,494.979828 871.169678,467.334686 
	C877.354492,459.316467 883.490540,451.252258 889.332275,442.985291 
	C890.443359,441.412842 890.740051,438.603912 890.221680,436.687561 
	C889.322144,433.361847 887.568237,430.250885 886.039429,427.114807 
	C881.610535,418.029388 882.573120,414.797699 892.495789,411.901306 
	C901.513428,409.269073 910.858826,407.646576 920.143921,406.076599 
	C928.915100,404.593536 937.795715,403.758423 947.177734,402.568634 
	C946.238892,399.177826 945.398071,396.186829 944.583801,393.188599 
	C943.371521,388.725464 944.648438,387.225189 949.310364,386.977997 
	C970.375366,385.861053 991.090027,388.688934 1011.532593,393.200958 
	C1036.602051,398.734192 1061.538818,404.886719 1086.463867,411.050659 
	C1102.617310,415.045380 1114.449951,425.633392 1124.059204,438.446106 
	C1134.095703,451.828278 1143.519409,465.726257 1152.385864,479.914337 
	C1161.814453,495.002045 1166.903564,511.882141 1169.976074,529.361694 
	C1172.806274,545.462708 1173.761963,561.717041 1172.874512,577.994446 
	C1172.226440,589.879333 1170.522217,601.705872 1169.324829,613.562073 
	C1169.091187,615.875000 1169.060303,618.207703 1168.870850,620.525940 
	C1168.170776,629.090942 1162.271973,633.713867 1155.444580,637.110840 
	C1150.322510,639.659302 1148.103760,643.767212 1147.083618,648.833069 
	C1142.999756,669.114014 1139.424927,689.506104 1134.916992,709.690674 
	C1130.421387,729.819946 1118.685303,745.648438 1102.592773,758.069397 
	C1093.066406,765.422302 1082.720581,771.713379 1072.754761,778.474060 
	C1080.416138,789.737000 1081.263550,803.676453 1083.880005,817.056824 
	C1084.349731,819.459534 1084.771606,820.559265 1087.363281,821.436768 
	C1106.060059,827.766846 1124.972778,833.628967 1143.196167,841.145020 
	C1168.232422,851.471008 1192.896606,862.757568 1217.333496,874.441406 
	C1224.332642,877.787842 1230.093018,883.811279 1236.202759,888.871399 
	C1237.767334,890.167236 1238.852295,892.342957 1239.560913,894.327454 
	C1255.758789,939.697205 1271.875000,985.096069 1288.003418,1030.490479 
	C1290.006104,1036.126831 1291.993164,1041.768555 1294.155273,1048.130737 
	C1299.892822,1065.586426 1305.462524,1082.319336 1311.032349,1099.052124 
	C1311.373657,1100.496094 1311.773926,1101.929199 1312.044189,1103.386353 
	C1312.609253,1106.431030 1312.824707,1109.173828 1308.238647,1108.717285 
	C1307.252686,1108.619019 1305.981201,1109.351440 1305.147217,1110.060791 
	C1284.606445,1127.530640 1263.986572,1144.910522 1243.634521,1162.598511 
	C1223.773926,1179.859497 1204.554688,1197.879150 1184.296997,1214.651611 
	C1177.157349,1220.562988 1175.313843,1226.435913 1175.862305,1235.154053 
	C1177.556396,1262.076904 1178.406616,1289.052612 1179.627563,1316.005737 
	C1179.870605,1321.370972 1180.640991,1326.738281 1180.473267,1332.082764 
	C1180.411621,1334.047241 1178.339355,1335.948486 1177.381104,1337.549683 
	C1175.799561,1337.017700 1174.266602,1336.009521 1172.781128,1336.075317 
	C1145.849243,1337.268188 1118.930054,1339.496216 1091.994263,1339.705200 
	C1026.694336,1340.212280 961.386353,1339.942627 896.083313,1339.635620 
	C880.622742,1339.562866 865.169922,1338.085205 849.709473,1337.336914 
	C848.278748,1337.267578 846.818787,1337.800415 844.227417,1338.254150 
	C843.614929,1335.043213 842.402466,1331.140381 842.217163,1327.189331 
	C841.866455,1319.711060 842.227600,1312.202759 842.079346,1304.711182 
	C841.087585,1254.593750 840.106323,1204.475830 838.973389,1154.361450 
	C838.578186,1136.881836 837.763550,1119.411621 837.115356,1101.015625 
	C836.914062,1095.196411 836.737854,1090.298950 836.561584,1085.401367 
	C836.036316,1085.337769 835.511047,1085.274292 834.985718,1085.210693 
	C831.603088,1090.431519 828.220459,1095.652344 824.837769,1100.873169 
	C810.507141,1119.428589 796.357971,1138.130005 781.663513,1156.392578 
	C779.277039,1159.358521 774.422180,1162.101074 770.798157,1161.990845 
	C757.868408,1161.597778 744.975220,1159.951782 732.072571,1158.734009 
	C726.633362,1158.220703 721.085022,1158.089966 715.819519,1156.818970 
	C712.950134,1156.126343 709.715576,1153.971436 708.105713,1151.517822 
	C697.429443,1135.247070 687.148621,1118.716553 676.388184,1101.724976 
	C666.346130,1082.772583 656.655151,1064.365723 646.964172,1045.958984 
M1023.966797,845.026245 
	C1023.966797,845.026245 1024.092651,845.034729 1024.318115,844.311035 
	C1021.528381,839.480652 1018.738708,834.650269 1016.033447,829.966064 
	C1012.008606,830.625488 1008.592041,831.321899 1005.141113,831.720947 
	C998.781738,832.456360 996.734741,834.221619 995.004089,841.005188 
	C995.004089,841.005188 995.014221,840.889893 994.141541,840.913025 
	C994.069641,841.458801 993.997742,842.004517 993.338806,842.446838 
	C990.837891,847.859924 988.336975,853.272949 985.268005,859.176636 
	C981.300415,871.640747 977.332825,884.104858 973.041443,897.586182 
	C956.679749,870.363647 941.141968,844.511902 925.917297,819.181274 
	C920.062378,820.249634 913.561951,820.816101 907.447449,822.661377 
	C884.059021,829.720093 860.653259,836.774963 837.532898,844.649963 
	C821.655273,850.058167 806.183777,856.685730 790.646301,863.050293 
	C785.533081,865.144714 782.213013,868.730530 782.094666,875.099854 
	C781.990784,880.697693 780.906128,886.395508 779.443420,891.830872 
	C769.285828,929.577515 758.959900,967.279053 748.560974,1004.960083 
	C747.233093,1009.771790 745.542358,1014.375977 747.025024,1019.486084 
	C747.465820,1021.005127 747.093079,1022.760254 747.093079,1024.407227 
	C746.536438,1024.530273 745.979797,1024.653320 745.423157,1024.776367 
	C743.386475,1021.236328 740.993530,1017.851624 739.370605,1014.131104 
	C728.469727,989.141663 717.736816,964.078857 706.929199,939.048706 
	C706.370667,937.755188 705.625549,936.542175 705.205566,935.744202 
	C679.860474,952.945068 651.769226,964.491394 626.915039,979.722290 
	C634.944397,998.952881 642.660461,1017.704712 650.589050,1036.366333 
	C667.263672,1075.614014 690.429565,1111.247803 712.760132,1147.333618 
	C713.630493,1148.739990 715.833862,1149.915649 717.543152,1150.116455 
	C733.564941,1151.996948 749.650452,1153.368896 765.638916,1155.482910 
	C772.389587,1156.375610 776.452942,1153.086792 779.950989,1148.511841 
	C791.577454,1133.306274 802.697083,1117.702271 814.643860,1102.756958 
	C820.750427,1095.117676 828.074890,1088.422607 835.102661,1081.560669 
	C838.802002,1077.948608 842.396301,1079.313843 843.132935,1084.424072 
	C843.701477,1088.368652 843.914246,1092.379028 844.056641,1096.368286 
	C845.602234,1139.654541 847.377625,1182.935059 848.530090,1226.232178 
	C849.490173,1262.299683 850.132263,1298.390747 848.000183,1334.578735 
	C848.146301,1334.602905 848.627197,1334.765381 849.102173,1334.749634 
	C868.740234,1334.097290 888.375244,1332.951416 908.015808,1332.848267 
	C979.665649,1332.471802 1051.318115,1332.586914 1122.967651,1332.176514 
	C1139.877563,1332.079590 1156.779785,1330.654663 1173.300903,1329.859131 
	C1172.272583,1308.751587 1171.053101,1288.138916 1170.303833,1267.509277 
	C1168.097412,1206.745117 1165.904175,1145.979492 1164.055908,1085.203735 
	C1163.104126,1053.906250 1162.837646,1022.586914 1162.413940,991.275330 
	C1162.348633,986.451477 1163.104858,981.616516 1163.481079,976.786682 
	C1164.260986,976.793091 1165.040771,976.799438 1165.820679,976.805847 
	C1167.393921,1001.658386 1168.967285,1026.510986 1170.507202,1050.834595 
	C1187.490723,1061.871704 1203.929688,1073.501587 1218.201416,1088.536255 
	C1217.277222,1089.240723 1216.534302,1089.527222 1216.261841,1090.056030 
	C1209.402832,1103.362305 1202.781006,1116.794800 1195.711182,1129.987183 
	C1190.766724,1139.213257 1185.274292,1148.149170 1179.899292,1157.138428 
	C1178.829102,1158.928223 1177.181152,1160.372314 1175.799683,1161.975952 
	C1175.314819,1161.675659 1174.829834,1161.375366 1174.344971,1161.075073 
	C1177.699707,1152.980225 1180.680054,1144.703979 1184.494141,1136.831665 
	C1190.653076,1124.119507 1197.360596,1111.673218 1204.282959,1098.571289 
	C1206.205811,1095.540894 1208.128540,1092.510498 1209.720459,1090.001587 
	C1196.525391,1079.516602 1183.688599,1069.316162 1171.531982,1059.656372 
	C1171.531982,1072.921875 1171.531982,1086.014160 1171.376221,1099.912476 
	C1172.640137,1137.590820 1173.904175,1175.269165 1175.197754,1213.833740 
	C1217.291138,1174.469116 1260.693726,1138.287598 1305.596680,1103.044312 
	C1305.398071,1102.428955 1304.932739,1100.853516 1304.384399,1099.307495 
	C1281.150024,1033.813477 1257.784302,968.365479 1234.827026,902.774536 
	C1231.999878,894.697449 1227.405029,888.832031 1220.532471,884.383301 
	C1216.907837,882.036987 1213.217651,879.702454 1209.308960,877.900513 
	C1192.850098,870.312866 1176.448853,862.567932 1159.743164,855.555786 
	C1136.612671,845.847046 1113.741699,835.353149 1089.130981,829.606140 
	C1086.600098,829.015137 1084.295166,827.456665 1081.538086,826.187195 
	C1070.546387,850.102600 1056.707886,872.820862 1049.429443,898.605164 
	C1048.913086,897.416809 1048.396851,896.228516 1048.157227,894.543457 
	C1048.465698,893.865479 1048.774170,893.187500 1049.142090,891.716309 
	C1059.635010,868.774780 1070.159058,845.847290 1080.557251,822.862793 
	C1081.320923,821.174561 1081.717163,818.968140 1081.363525,817.185242 
	C1079.522583,807.902649 1077.250366,798.705688 1075.405762,789.423767 
	C1074.522095,784.977356 1072.476562,783.854431 1068.614380,786.065247 
	C1053.217773,794.878845 1037.675415,803.456116 1022.553711,812.719666 
	C1018.076111,815.462708 1014.802734,820.171387 1010.497681,824.006836 
	C1010.532288,824.246887 1010.566833,824.487000 1010.601440,824.726990 
	C1010.856812,824.585632 1011.112183,824.444275 1012.073303,824.279480 
	C1013.976013,825.599670 1016.498413,826.509949 1017.684998,828.303833 
	C1028.775513,845.070007 1037.037476,863.248108 1043.310059,882.039062 
	C1042.919800,882.051025 1042.529663,882.062988 1041.750488,881.470093 
	C1037.638184,872.616638 1033.525757,863.763184 1029.239990,854.201050 
	C1027.850830,851.645630 1026.461670,849.090210 1025.028320,845.744690 
	C1024.672974,845.463196 1024.317505,845.181702 1023.966797,845.026245 
M1101.477661,690.006531 
	C1100.164673,690.612610 1098.888184,691.319763 1097.532959,691.808838 
	C1086.496948,695.791321 1075.242920,699.130920 1063.647949,694.770874 
	C1055.430298,691.680664 1047.389526,687.959473 1039.642944,683.821472 
	C1031.743286,679.601746 1023.970703,674.397095 1022.148560,664.859802 
	C1019.293213,649.915283 1017.229858,634.814392 1015.088867,619.743103 
	C1014.702515,617.023193 1013.978699,615.894287 1011.197266,615.968933 
	C1006.296082,616.100586 1001.388855,616.005798 996.180664,616.005798 
	C996.194946,615.884216 995.989929,616.692505 996.023132,617.490845 
	C996.758240,635.153015 992.990479,652.046692 986.929016,668.457825 
	C984.217102,675.800049 980.905518,682.835510 973.546814,687.168091 
	C958.618652,695.957458 942.795166,701.119629 925.471252,697.825684 
	C914.134888,695.670227 903.326538,692.250610 896.350098,681.141968 
	C887.904297,667.693787 881.462402,653.822205 879.948486,637.860352 
	C879.290283,630.920532 878.160461,624.025391 877.303040,617.549500 
	C874.350952,616.710571 871.466858,615.890991 868.020142,614.911560 
	C867.341675,620.765198 866.682861,626.529053 866.001160,632.290344 
	C865.756897,634.354431 864.927002,636.506165 865.272949,638.456726 
	C867.018555,648.299438 869.002869,658.101562 871.016174,667.894775 
	C875.837463,691.346252 883.004028,713.910461 897.241089,733.565979 
	C907.216309,747.337585 919.710571,758.265686 934.972229,766.036011 
	C950.134216,773.755615 966.378296,778.050415 982.771301,782.011230 
	C992.122070,784.270508 1001.444153,786.905762 1011.181824,785.932678 
	C1017.955994,785.255737 1024.657104,783.880371 1031.417480,783.028870 
	C1052.407104,780.385132 1071.460571,772.773926 1088.958496,761.008972 
	C1104.054565,750.859131 1117.333618,738.764465 1124.447876,721.773987 
	C1131.879639,704.025818 1134.552856,684.889160 1138.070801,666.044800 
	C1139.794922,656.809631 1139.537354,646.965942 1145.539062,638.832642 
	C1146.205200,637.929749 1146.098389,636.257690 1145.952393,634.988098 
	C1145.269531,629.052734 1144.447021,623.133484 1143.683228,617.276001 
	C1141.022339,617.276001 1138.609375,617.276001 1136.149292,617.276001 
	C1136.031128,619.511108 1136.209595,621.544556 1135.776245,623.437988 
	C1133.265503,634.407349 1130.910034,645.426270 1127.923218,656.268921 
	C1124.715698,667.912964 1121.774780,679.934204 1109.464478,686.048523 
	C1107.017822,687.263794 1104.661865,688.661560 1101.477661,690.006531 
M990.984009,592.943237 
	C991.675720,596.086792 992.218689,599.276306 993.164673,602.341431 
	C993.398438,603.098816 994.925476,603.882751 995.884888,603.917786 
	C1000.376892,604.081482 1005.020142,604.663208 1009.328491,603.758301 
	C1012.409424,603.111267 1017.542419,604.253479 1017.957886,598.710266 
	C1018.286865,594.320801 1020.614502,591.716370 1024.743164,591.041992 
	C1032.091553,589.841736 1039.468262,588.669861 1046.880249,588.039062 
	C1057.856079,587.104858 1068.866455,586.473755 1079.875366,586.080200 
	C1084.607422,585.911011 1089.392822,586.484131 1094.118042,587.030457 
	C1104.293213,588.206909 1114.451294,589.538757 1124.603882,590.900024 
	C1129.348267,591.536194 1134.063599,592.388611 1138.878784,593.156860 
	C1138.193115,588.328430 1136.489136,583.934326 1137.331055,580.099243 
	C1138.158081,576.333252 1136.914551,575.399597 1134.375610,573.689575 
	C1116.931030,561.940308 1099.387695,550.294312 1085.035400,534.618896 
	C1084.190430,533.696045 1082.751709,533.316711 1081.705933,532.747864 
	C1080.680176,538.933960 1079.752075,544.531799 1078.898315,549.680481 
	C1051.665283,542.295776 1026.968872,532.609497 1007.379883,511.918854 
	C1006.871155,521.208740 1006.495544,529.112366 1005.975830,537.006531 
	C1005.786865,539.876953 1005.254578,542.724854 1004.878967,545.583008 
	C1001.741028,544.662109 998.602600,543.742920 995.466675,542.815186 
	C995.312988,542.769775 995.177185,542.656616 995.039734,542.564880 
	C984.990662,535.850708 974.897095,529.202026 964.904724,522.404480 
	C950.422607,512.552917 935.086182,503.707825 924.795288,488.799255 
	C924.444824,488.291412 921.713989,488.508057 921.118469,489.231476 
	C915.768677,495.730347 910.492981,502.303711 905.500549,509.079895 
	C899.182007,517.656006 891.748779,525.793152 887.340698,535.299561 
	C881.589966,547.701355 878.178040,561.211243 874.080444,574.344421 
	C872.437988,579.608582 871.648010,585.138672 870.257996,591.521118 
	C876.655762,590.928833 881.692810,590.264587 886.749756,590.030640 
	C903.243652,589.267395 919.739868,588.446411 936.244751,588.060791 
	C950.064697,587.737854 963.912476,587.640198 977.717041,588.202271 
	C982.059143,588.379089 987.458862,587.412354 990.984009,592.943237 
M893.422913,666.932983 
	C894.943481,669.209290 896.378296,671.548828 898.003479,673.747864 
	C900.914978,677.687683 903.369080,682.231140 907.043213,685.284302 
	C913.825256,690.920227 922.416260,692.265503 931.008850,692.994507 
	C941.610718,693.894043 951.722290,691.772766 961.547974,687.982422 
	C969.686401,684.843079 977.211792,680.879028 979.989380,671.737366 
	C983.105347,661.481750 986.715515,651.298523 988.757751,640.820129 
	C990.283020,632.994080 990.102722,624.729492 989.741943,616.702454 
	C989.623840,614.073547 987.017151,609.964783 984.746948,609.309326 
	C976.432251,606.908691 967.818359,605.430908 959.240723,604.096313 
	C953.904297,603.266052 948.399231,603.577759 943.024231,602.927612 
	C925.956726,600.863037 909.186462,601.268555 893.037598,608.023743 
	C884.169434,611.733398 881.426819,617.171814 883.754395,626.417480 
	C883.913086,627.048096 883.944092,627.714050 884.002380,628.366394 
	C885.170227,641.436768 887.672974,654.188416 893.422913,666.932983 
M1063.478638,689.047119 
	C1074.696777,693.175964 1085.508179,690.573059 1096.205688,686.944824 
	C1109.196777,682.538879 1118.436768,674.893127 1121.366089,660.447571 
	C1124.231934,646.316040 1128.417236,632.454956 1131.781250,618.417114 
	C1132.109863,617.045715 1131.193481,614.712097 1130.065918,613.787720 
	C1127.350708,611.561646 1124.314453,609.598450 1121.143555,608.082031 
	C1113.057251,604.215027 1104.446533,602.763123 1095.494019,601.803894 
	C1077.020142,599.824646 1058.854980,600.947144 1041.206299,606.262573 
	C1033.725830,608.515564 1027.040283,613.408020 1020.006104,617.094177 
	C1020.006104,618.970276 1019.780457,620.501343 1020.041016,621.944702 
	C1022.646851,636.382812 1025.050049,650.868591 1028.199463,665.189453 
	C1028.965210,668.671753 1031.550293,672.796204 1034.523682,674.556152 
	C1043.572510,679.912476 1053.220093,684.257446 1063.478638,689.047119 
M991.608826,815.885986 
	C974.879028,801.941528 953.788635,796.586060 934.134033,786.499573 
	C931.950256,795.163879 929.803467,803.458069 927.824707,811.792053 
	C927.552979,812.936523 927.764160,814.478638 928.343750,815.500916 
	C942.572632,840.596008 956.881836,865.645630 971.176575,890.703369 
	C971.830811,890.569702 972.484985,890.436035 973.139221,890.302368 
	C979.467346,866.734009 986.089355,843.299377 1002.786133,824.099792 
	C999.108765,821.391724 995.651367,818.845642 991.608826,815.885986 
M982.291565,787.040466 
	C970.509033,784.162659 958.726440,781.284912 946.647217,778.334656 
	C946.647217,782.647705 946.647217,786.228149 946.647217,789.985779 
	C968.688782,797.482117 988.913574,808.286743 1005.616516,823.929260 
	C1012.504272,818.233765 1019.328064,811.585876 1027.121826,806.394226 
	C1037.473389,799.498840 1048.546021,793.676331 1059.393311,787.542175 
	C1061.702393,786.236389 1063.773804,785.223022 1062.432251,781.396301 
	C1057.398560,782.665039 1052.489380,784.203979 1047.466187,785.110474 
	C1033.938599,787.551453 1020.429077,790.676636 1006.779541,791.631653 
	C998.989990,792.176636 990.940796,789.008911 982.291565,787.040466 
M613.418152,752.041260 
	C610.128906,739.815002 606.839661,727.588745 603.418213,714.870972 
	C600.586121,715.945679 596.955139,717.323486 593.235046,718.735107 
	C610.883972,770.480103 628.316589,821.590942 645.816284,872.898315 
	C647.745972,872.189819 650.030273,871.351135 651.792725,870.704041 
	C639.050415,831.222107 626.391602,791.998840 613.418152,752.041260 
z"/>
<path fill="#B25C0F" opacity="1.000000" stroke="none" 
	d="
M646.499634,1045.975708 
	C656.655151,1064.365723 666.346130,1082.772583 676.113159,1101.526611 
	C646.874390,1101.916016 617.559753,1101.965088 588.245056,1101.997314 
	C573.253540,1102.013672 558.261658,1101.939331 543.270508,1102.010498 
	C478.211304,1102.319336 413.152008,1102.623291 348.093781,1103.080322 
	C342.737091,1103.117920 337.356537,1104.100342 332.044037,1104.985596 
	C325.540680,1106.069458 322.728363,1103.836426 322.041107,1096.013428 
	C321.220856,1086.677490 320.711060,1077.314819 319.974121,1067.971069 
	C319.746765,1065.088379 319.216248,1062.229736 318.762634,1058.906860 
	C320.792328,1059.273804 322.145233,1059.518311 323.489716,1059.761230 
	C323.892090,1053.409546 326.153076,1050.887329 332.554535,1050.165405 
	C337.340240,1049.625610 342.170227,1049.478516 347.415405,1049.145508 
	C347.980225,1050.925659 348.110107,1052.716797 348.292664,1055.234009 
	C352.096191,1054.802734 355.620544,1054.223389 359.165833,1054.032959 
	C373.033722,1053.287964 386.904419,1052.569946 400.781158,1052.021240 
	C419.979675,1051.262329 439.183990,1050.648071 458.386902,1050.004150 
	C478.920502,1049.315674 499.454437,1048.633423 519.990051,1048.008667 
	C532.919617,1047.615234 545.850830,1047.209595 558.784424,1047.024902 
	C587.866943,1046.609497 616.951416,1046.328369 646.499634,1045.975708 
z"/>
<path fill="#B25C0F" opacity="1.000000" stroke="none" 
	d="
M1311.498779,1099.036133 
	C1305.462524,1082.319336 1299.892822,1065.586426 1294.240479,1048.511963 
	C1304.085571,1048.446777 1314.011597,1048.866577 1323.941040,1048.965332 
	C1337.755005,1049.102905 1351.571899,1048.916138 1365.386475,1049.015991 
	C1405.277832,1049.304321 1445.168823,1049.631836 1485.059326,1050.011597 
	C1513.798706,1050.285156 1542.537842,1050.618286 1571.275635,1051.018799 
	C1587.787354,1051.248901 1604.296265,1051.669922 1620.806763,1051.995117 
	C1622.617065,1052.030762 1624.428711,1052.000000 1627.024780,1052.000000 
	C1627.024780,1048.791138 1627.024780,1045.870728 1627.090088,1042.502441 
	C1631.867432,1043.652222 1636.563843,1045.298584 1641.295776,1046.835083 
	C1646.851196,1048.638916 1650.296753,1052.754395 1653.234375,1057.467896 
	C1653.743408,1058.284790 1654.061768,1059.463989 1654.798584,1059.858032 
	C1662.785400,1064.128540 1663.774536,1071.822266 1663.868042,1079.477051 
	C1663.959351,1086.948242 1662.968994,1094.432617 1662.401245,1102.668091 
	C1650.260498,1096.734741 1638.385986,1099.187378 1626.813721,1099.097412 
	C1558.601562,1098.566406 1490.387329,1098.161011 1422.173340,1098.069336 
	C1385.437866,1098.020020 1348.701172,1098.680176 1311.498779,1099.036133 
z"/>
<path fill="#070707" opacity="1.000000" stroke="none" 
	d="
M579.380737,1566.437988 
	C564.620544,1571.783813 550.142761,1571.436890 536.113342,1565.780762 
	C530.430420,1563.489746 525.584412,1559.122559 520.173340,1555.579468 
	C520.173340,1558.757935 520.173340,1562.564087 520.173340,1566.735718 
	C505.020355,1566.735718 490.493713,1566.735718 475.747162,1566.735718 
	C475.747162,1499.221802 475.747162,1431.819702 475.747162,1364.020020 
	C490.259277,1364.020020 504.643860,1364.020020 519.566467,1364.020020 
	C519.566467,1391.516724 519.566467,1419.046753 519.566467,1447.810913 
	C522.045105,1445.490723 523.605225,1443.942871 525.256042,1442.498413 
	C547.531494,1423.007446 583.719055,1427.029785 602.025574,1451.018066 
	C623.861267,1479.630859 621.366150,1528.765869 596.294434,1554.590210 
	C591.669312,1559.354248 585.296082,1562.420776 579.380737,1566.437988 
M535.317017,1550.267822 
	C545.294495,1557.307007 556.074341,1558.612549 567.644775,1554.994019 
	C571.319763,1553.844604 572.806274,1551.945679 572.781677,1547.832886 
	C572.595398,1516.675537 572.679077,1485.516479 572.679810,1454.358032 
	C572.679993,1447.179443 571.293091,1445.459473 564.274597,1443.951050 
	C542.263611,1439.220703 519.944153,1457.071533 519.790405,1479.604248 
	C519.705200,1492.100342 519.975830,1504.601562 519.722107,1517.093140 
	C519.449280,1530.525879 524.280212,1541.418579 535.317017,1550.267822 
M488.772339,1545.461426 
	C488.772339,1548.216553 488.772339,1550.971680 488.772339,1553.849731 
	C494.977661,1553.849731 500.429260,1553.849731 506.207733,1553.849731 
	C506.207733,1494.849121 506.207733,1436.013916 506.207733,1377.099854 
	C500.398956,1377.099854 494.798615,1377.099854 488.772339,1377.099854 
	C488.772339,1433.041382 488.772339,1488.755005 488.772339,1545.461426 
M592.670593,1459.854126 
	C590.703369,1457.821655 588.736145,1455.789185 586.257690,1453.228516 
	C586.257690,1484.603882 586.257690,1514.794800 586.257690,1545.631958 
	C587.364807,1544.663696 587.989868,1544.178955 588.543457,1543.623169 
	C596.915161,1535.221191 600.813843,1524.668457 602.423157,1513.268799 
	C605.042847,1494.711548 604.026367,1476.666626 592.670593,1459.854126 
z"/>
<path fill="#070707" opacity="1.000000" stroke="none" 
	d="
M1172.931763,1467.216309 
	C1168.805420,1476.750610 1167.544067,1486.410645 1167.566650,1496.332642 
	C1167.615967,1517.996094 1167.581665,1539.659912 1167.581543,1561.323486 
	C1167.581543,1563.122192 1167.581543,1564.920898 1167.581543,1566.902588 
	C1152.805542,1566.902588 1138.518188,1566.902588 1123.891357,1566.902588 
	C1123.891357,1499.326660 1123.891357,1431.785645 1123.891357,1363.932861 
	C1138.228638,1363.932861 1152.473999,1363.932861 1167.528809,1363.932861 
	C1167.528809,1392.342773 1167.528809,1420.808105 1167.528809,1450.540405 
	C1170.818848,1446.925171 1172.960205,1444.240723 1175.433228,1441.907837 
	C1193.895874,1424.490967 1229.432739,1426.170288 1244.465210,1448.482422 
	C1250.469604,1457.394897 1252.672363,1467.423340 1252.751953,1477.844849 
	C1252.977295,1507.327271 1252.830811,1536.812622 1252.830811,1566.698730 
	C1238.163330,1566.698730 1223.616577,1566.698730 1208.588623,1566.698730 
	C1208.588623,1525.660400 1208.588623,1484.577759 1208.588623,1443.571655 
	C1195.956055,1441.646729 1183.843384,1448.203857 1176.403687,1460.713013 
	C1175.213501,1462.714233 1174.185303,1464.811890 1172.931763,1467.216309 
M1154.563232,1403.500244 
	C1154.563232,1394.725220 1154.563232,1385.950317 1154.563232,1377.226318 
	C1148.211914,1377.226318 1142.468994,1377.226318 1137.013672,1377.226318 
	C1137.013672,1436.282959 1137.013672,1494.981445 1137.013672,1553.661133 
	C1142.997314,1553.661133 1148.555420,1553.661133 1154.563232,1553.661133 
	C1154.563232,1503.703369 1154.563232,1454.101807 1154.563232,1403.500244 
M1221.864380,1457.526001 
	C1221.864380,1489.610596 1221.864380,1521.695190 1221.864380,1553.812744 
	C1228.065674,1553.812744 1233.518555,1553.812744 1239.133545,1553.812744 
	C1239.318115,1552.859497 1239.605835,1552.067627 1239.605225,1551.276123 
	C1239.583862,1526.111450 1239.717529,1500.943848 1239.338867,1475.784302 
	C1239.260498,1470.579590 1237.791260,1465.213745 1236.016113,1460.261597 
	C1233.669312,1453.714722 1229.262695,1448.614746 1221.864380,1445.680420 
	C1221.864380,1449.661743 1221.864380,1453.099487 1221.864380,1457.526001 
z"/>
<path fill="#070707" opacity="1.000000" stroke="none" 
	d="
M908.646790,1435.402588 
	C925.783630,1442.226318 934.257812,1455.367676 934.680481,1472.648071 
	C935.445618,1503.932007 934.897217,1535.248169 934.897217,1566.825073 
	C920.464111,1566.825073 906.044495,1566.825073 891.199707,1566.825073 
	C891.199707,1562.477661 891.199707,1558.066528 891.199707,1552.724854 
	C889.566528,1554.060547 888.599548,1554.778931 887.713745,1555.586304 
	C867.658142,1573.864502 831.126343,1574.976074 810.036072,1557.939453 
	C792.083374,1543.437134 794.222229,1513.065186 813.987244,1500.899292 
	C824.742676,1494.279053 836.794250,1491.895630 848.959412,1489.792847 
	C857.656189,1488.289551 866.435913,1487.147339 875.028442,1485.185913 
	C891.893005,1481.336548 895.619263,1472.101318 886.143250,1457.516968 
	C875.900635,1441.752686 866.277283,1440.389648 848.189880,1446.666870 
	C835.059265,1451.223877 826.825562,1461.554443 820.296082,1473.325439 
	C816.688843,1479.828369 816.750977,1479.872925 809.465698,1477.946777 
	C808.033203,1477.568115 806.625977,1477.093994 804.601562,1476.480591 
	C808.400208,1466.296997 813.624023,1457.234131 820.965515,1449.425903 
	C832.328796,1437.340332 846.996155,1432.401489 862.933960,1430.867188 
	C878.274902,1429.390259 893.560181,1429.821777 908.646790,1435.402588 
M890.842529,1493.393311 
	C880.167236,1498.118408 868.889221,1500.368164 857.362549,1501.703857 
	C852.675232,1502.246948 848.031677,1503.168213 843.590332,1503.881714 
	C843.590332,1522.001953 843.590332,1539.245117 843.590332,1557.845093 
	C850.319702,1556.898926 856.798706,1556.696289 862.857300,1554.995972 
	C877.834595,1550.792114 892.466980,1537.926514 891.105652,1517.675049 
	C890.582642,1509.894409 891.006775,1502.050171 890.842529,1493.393311 
M903.399414,1445.883545 
	C899.159424,1444.991577 894.919495,1444.099609 890.679504,1443.207764 
	C890.496887,1443.618774 890.314209,1444.029907 890.131592,1444.440918 
	C895.800659,1448.652466 899.983032,1453.981812 901.541138,1460.795776 
	C902.757141,1466.113892 903.803223,1471.602051 903.872437,1477.028198 
	C904.175964,1500.833252 904.097107,1524.643188 904.155945,1548.451294 
	C904.160278,1550.205811 904.156494,1551.960327 904.156494,1553.707520 
	C910.524109,1553.707520 916.097961,1553.707520 921.781799,1553.707520 
	C921.781799,1527.291504 922.247681,1501.169556 921.578003,1475.076782 
	C921.260864,1462.723145 917.123108,1451.426880 903.399414,1445.883545 
M828.080261,1508.290405 
	C815.874695,1512.387573 809.370056,1522.795410 811.225159,1535.259644 
	C812.588928,1544.422729 821.687561,1553.396973 830.217102,1553.693848 
	C830.217102,1539.082764 830.231750,1524.480103 830.162048,1509.877930 
	C830.159302,1509.309937 829.348755,1508.745728 828.080261,1508.290405 
z"/>
<path fill="#070707" opacity="1.000000" stroke="none" 
	d="
M687.071411,1551.296631 
	C697.411682,1557.617798 708.525085,1557.428589 719.705017,1556.446289 
	C734.981567,1555.103882 746.605286,1547.528198 755.327942,1535.149780 
	C755.987305,1534.214111 756.774658,1533.368652 757.790283,1532.130493 
	C761.312927,1534.442505 764.709534,1536.671753 768.272888,1539.010498 
	C761.099854,1552.030640 750.832031,1560.945068 737.317871,1565.611084 
	C718.210876,1572.208130 698.958008,1572.063110 680.329468,1563.864380 
	C659.798767,1554.828369 648.407471,1538.239502 644.482788,1516.620972 
	C640.099487,1492.476929 643.154175,1469.650879 660.227661,1450.659912 
	C688.799805,1418.879150 745.868164,1424.797119 765.373413,1461.565552 
	C768.338196,1467.154541 770.339966,1473.683716 770.996948,1479.965210 
	C771.939819,1488.979736 771.237427,1498.166382 771.237427,1507.915649 
	C757.415039,1507.915649 743.488770,1507.915649 729.562500,1507.915649 
	C715.588928,1507.915649 701.615295,1507.915649 686.929810,1507.915649 
	C686.929810,1522.416870 686.929810,1536.649414 687.071411,1551.296631 
M691.043945,1447.573486 
	C687.539307,1448.413818 686.550842,1450.618530 686.736145,1454.145020 
	C687.041138,1459.949463 686.818909,1465.781738 686.818909,1471.602295 
	C686.818909,1479.192871 686.818909,1486.783447 686.818909,1494.576050 
	C700.643616,1494.576050 713.857788,1494.576050 727.363159,1494.576050 
	C727.457458,1492.897217 727.608154,1491.440430 727.610413,1489.983276 
	C727.629395,1477.843384 727.401550,1465.697266 727.742126,1453.566895 
	C727.858582,1449.420654 726.045410,1447.692627 722.738953,1446.182007 
	C712.200867,1441.367310 701.976318,1443.438477 691.043945,1447.573486 
M663.130310,1532.308594 
	C666.195557,1536.640991 669.260803,1540.973511 672.326050,1545.306030 
	C672.690063,1545.050049 673.054138,1544.794189 673.418213,1544.538208 
	C673.418213,1514.765137 673.418213,1484.992065 673.418213,1454.935791 
	C655.285339,1468.579224 650.396118,1504.942383 663.130310,1532.308594 
M740.808167,1493.237183 
	C741.329163,1493.753662 741.840759,1494.707397 742.372559,1494.718750 
	C747.628906,1494.830811 752.888611,1494.786499 758.053406,1494.786499 
	C760.757385,1477.307007 752.933472,1458.488159 740.785461,1453.382935 
	C740.785461,1466.462891 740.785461,1479.371094 740.808167,1493.237183 
z"/>
<path fill="#070707" opacity="1.000000" stroke="none" 
	d="
M1404.854736,1537.277100 
	C1408.052979,1538.846680 1406.632690,1540.467896 1405.536743,1542.230225 
	C1398.395386,1553.716064 1388.316895,1561.631348 1375.626343,1565.937622 
	C1359.572876,1571.385254 1343.182983,1571.718872 1326.992432,1566.725586 
	C1305.884521,1560.215698 1291.752930,1546.099731 1285.735474,1524.899048 
	C1278.147461,1498.164551 1280.084717,1472.472656 1299.341064,1450.787354 
	C1327.721924,1418.826782 1385.062256,1424.796021 1404.463745,1461.486938 
	C1407.350098,1466.945679 1409.427368,1473.274536 1410.045898,1479.386353 
	C1410.976196,1488.576782 1410.287964,1497.931274 1410.287964,1507.707031 
	C1382.580078,1507.707031 1354.680664,1507.707031 1325.953247,1507.707031 
	C1325.953247,1510.592529 1325.953247,1513.004272 1325.953247,1515.416138 
	C1325.953247,1525.909912 1326.165161,1536.410156 1325.846313,1546.894165 
	C1325.722778,1550.956543 1327.054932,1552.963013 1330.852417,1554.091797 
	C1350.252930,1559.858521 1378.401245,1558.934082 1394.282837,1535.455078 
	C1395.010376,1534.379272 1395.931641,1533.434692 1396.973511,1532.173828 
	C1399.606934,1533.877075 1402.079956,1535.476440 1404.854736,1537.277100 
M1353.482178,1494.817505 
	C1357.755371,1494.817505 1362.028564,1494.817505 1366.766357,1494.817505 
	C1366.766357,1479.711670 1366.852295,1465.130981 1366.612427,1450.555786 
	C1366.591919,1449.313965 1364.613770,1447.700439 1363.182983,1446.948975 
	C1351.084595,1440.594482 1339.322266,1443.490356 1327.835815,1448.799072 
	C1326.744751,1449.303467 1326.047485,1451.731567 1326.017334,1453.283081 
	C1325.845947,1462.088501 1325.932983,1470.899048 1325.932373,1479.707764 
	C1325.932129,1484.619995 1325.932495,1489.532227 1325.932495,1494.817505 
	C1335.261353,1494.817505 1343.874146,1494.817505 1353.482178,1494.817505 
M1309.252686,1542.356934 
	C1310.281616,1543.223755 1311.310547,1544.090576 1312.653687,1545.222168 
	C1312.653687,1514.748291 1312.653687,1485.028687 1312.653687,1455.139404 
	C1292.476929,1469.216553 1287.479370,1517.623657 1309.252686,1542.356934 
M1397.215454,1479.414673 
	C1395.102051,1468.476074 1390.237061,1459.350586 1380.120605,1452.800659 
	C1380.120605,1467.185059 1380.120605,1480.748779 1380.120605,1494.488770 
	C1386.067017,1494.488770 1391.766235,1494.488770 1397.383789,1494.488770 
	C1397.383789,1489.521851 1397.383789,1484.897461 1397.215454,1479.414673 
z"/>
<path fill="#0A0A0A" opacity="1.000000" stroke="none" 
	d="
M966.992432,1482.769409 
	C979.117615,1423.872559 1047.457275,1418.833008 1076.511108,1445.745605 
	C1084.657104,1453.291260 1089.093750,1462.736694 1092.133179,1473.580444 
	C1088.552246,1475.304077 1085.019897,1477.004395 1081.078247,1478.901855 
	C1078.286255,1474.101562 1075.734619,1469.507690 1072.990479,1465.031860 
	C1060.410645,1444.513672 1034.926147,1436.989136 1013.787537,1447.385986 
	C1010.787659,1448.861450 1009.449036,1450.592285 1009.469116,1454.198120 
	C1009.639038,1484.691406 1009.679138,1515.186768 1009.439880,1545.679077 
	C1009.405640,1550.031250 1011.218750,1552.052124 1014.662109,1553.599121 
	C1026.318604,1558.835693 1038.111816,1557.533325 1049.794556,1554.001221 
	C1063.553711,1549.841675 1071.670898,1539.458740 1077.994019,1527.312866 
	C1078.992065,1525.395752 1079.885864,1523.424316 1080.853760,1521.491089 
	C1080.994141,1521.210693 1081.280518,1521.003662 1081.949585,1520.266846 
	C1085.500854,1521.678711 1089.266113,1523.175537 1093.010620,1524.664185 
	C1081.719971,1557.851685 1058.307983,1572.939331 1024.985718,1569.595825 
	C980.294312,1565.111450 962.384460,1528.006470 965.763611,1491.096436 
	C966.006165,1488.446777 966.513550,1485.821411 966.992432,1482.769409 
M996.309448,1490.500122 
	C996.309448,1479.293457 996.309448,1468.086914 996.309448,1456.352905 
	C971.892090,1472.363281 973.997253,1530.651978 996.309509,1543.590454 
	C996.309509,1525.974487 996.309509,1508.737305 996.309448,1490.500122 
z"/>
<path fill="#070707" opacity="1.000000" stroke="none" 
	d="
M1440.982056,1442.055908 
	C1440.982056,1438.935181 1440.982056,1436.306396 1440.982056,1433.372192 
	C1455.667603,1433.372192 1469.917603,1433.372192 1484.959106,1433.372192 
	C1484.959106,1442.642822 1484.959106,1451.963257 1484.959106,1461.283569 
	C1485.341064,1461.501831 1485.722900,1461.720093 1486.104858,1461.938354 
	C1499.586792,1439.468140 1519.784058,1429.769409 1545.532715,1429.616089 
	C1545.532715,1434.036255 1545.532715,1438.083008 1545.532715,1442.441040 
	C1544.183594,1442.596436 1542.904053,1442.899048 1541.632935,1442.866821 
	C1521.673218,1442.362183 1507.979248,1452.612793 1497.785278,1468.610229 
	C1489.166016,1482.136108 1484.919800,1496.960449 1485.056152,1513.077637 
	C1485.206787,1530.870728 1485.090576,1548.666016 1485.090576,1566.779297 
	C1470.367676,1566.779297 1455.964111,1566.779297 1440.982056,1566.779297 
	C1440.982056,1525.377563 1440.982056,1483.962769 1440.982056,1442.055908 
M1454.092773,1463.501709 
	C1454.092773,1493.539307 1454.092773,1523.576904 1454.092773,1553.709717 
	C1460.396973,1553.709717 1465.959717,1553.709717 1471.652222,1553.709717 
	C1471.652222,1517.751221 1471.652222,1482.102051 1471.652222,1446.395508 
	C1465.744507,1446.395508 1460.172974,1446.395508 1454.092896,1446.395508 
	C1454.092896,1451.941162 1454.092896,1457.221924 1454.092773,1463.501709 
z"/>
<path fill="#AE5B10" opacity="1.000000" stroke="none" 
	d="
M825.307739,1100.929199 
	C828.220459,1095.652344 831.603088,1090.431519 834.985718,1085.210693 
	C835.511047,1085.274292 836.036316,1085.337769 836.561584,1085.401367 
	C836.737854,1090.298950 836.914062,1095.196411 837.023010,1100.556396 
	C833.229675,1101.007568 829.503662,1100.996338 825.307739,1100.929199 
z"/>
<path fill="#FDFDFD" opacity="1.000000" stroke="none" 
	d="
M617.948181,898.100708 
	C623.139893,894.072632 628.202148,889.499695 634.091248,886.614746 
	C641.570129,882.951172 649.748413,880.731873 657.568542,877.741821 
	C661.695068,876.164001 665.677246,874.211609 669.777222,872.559021 
	C670.949829,872.086365 672.306641,872.070862 672.646912,872.010620 
	C678.455322,894.090515 684.170776,915.817017 689.968872,937.857605 
	C676.490417,944.878174 662.563049,952.132629 648.424561,959.497009 
	C645.103333,935.950989 630.507141,918.345337 618.644531,899.080200 
	C618.314331,898.704102 618.250122,898.504883 617.948181,898.100708 
z"/>
<path fill="#FEFEFE" opacity="1.000000" stroke="none" 
	d="
M1029.413452,854.909729 
	C1033.525757,863.763184 1037.638184,872.616638 1041.944092,882.125916 
	C1044.052002,886.867920 1045.966309,890.954041 1047.880615,895.040222 
	C1048.396851,896.228516 1048.913086,897.416809 1049.429443,898.605164 
	C1056.707886,872.820862 1070.546387,850.102600 1081.538086,826.187195 
	C1084.295166,827.456665 1086.600098,829.015137 1089.130981,829.606140 
	C1113.741699,835.353149 1136.612671,845.847046 1159.743164,855.555786 
	C1176.448853,862.567932 1192.850098,870.312866 1209.308960,877.900513 
	C1213.217651,879.702454 1216.907837,882.036987 1220.532471,884.383301 
	C1227.405029,888.832031 1231.999878,894.697449 1234.827026,902.774536 
	C1257.784302,968.365479 1281.150024,1033.813477 1304.384399,1099.307495 
	C1304.932739,1100.853516 1305.398071,1102.428955 1305.596680,1103.044312 
	C1260.693726,1138.287598 1217.291138,1174.469116 1175.197754,1213.833740 
	C1173.904175,1175.269165 1172.640137,1137.590820 1171.880127,1099.483154 
	C1182.868164,1099.074097 1193.352295,1099.094360 1203.836426,1099.114624 
	C1197.360596,1111.673218 1190.653076,1124.119507 1184.494141,1136.831665 
	C1180.680054,1144.703979 1177.699707,1152.980225 1174.344971,1161.075073 
	C1174.829834,1161.375366 1175.314819,1161.675659 1175.799683,1161.975952 
	C1177.181152,1160.372314 1178.829102,1158.928223 1179.899292,1157.138428 
	C1185.274292,1148.149170 1190.766724,1139.213257 1195.711182,1129.987183 
	C1202.781006,1116.794800 1209.402832,1103.362305 1216.261841,1090.056030 
	C1216.534302,1089.527222 1217.277222,1089.240723 1218.201416,1088.536255 
	C1203.929688,1073.501587 1187.490723,1061.871704 1170.507202,1050.834595 
	C1168.967285,1026.510986 1167.393921,1001.658386 1165.820679,976.805847 
	C1165.040771,976.799438 1164.260986,976.793091 1163.481079,976.786682 
	C1163.104858,981.616516 1162.348633,986.451477 1162.413940,991.275330 
	C1162.837646,1022.586914 1163.104126,1053.906250 1164.055908,1085.203735 
	C1165.904175,1145.979492 1168.097412,1206.745117 1170.303833,1267.509277 
	C1171.053101,1288.138916 1172.272583,1308.751587 1173.300903,1329.859131 
	C1156.779785,1330.654663 1139.877563,1332.079590 1122.967651,1332.176514 
	C1051.318115,1332.586914 979.665649,1332.471802 908.015808,1332.848267 
	C888.375244,1332.951416 868.740234,1334.097290 849.102173,1334.749634 
	C848.627197,1334.765381 848.146301,1334.602905 848.000183,1334.578735 
	C850.132263,1298.390747 849.490173,1262.299683 848.530090,1226.232178 
	C847.377625,1182.935059 845.602234,1139.654541 844.056641,1096.368286 
	C843.914246,1092.379028 843.701477,1088.368652 843.132935,1084.424072 
	C842.396301,1079.313843 838.802002,1077.948608 835.102661,1081.560669 
	C828.074890,1088.422607 820.750427,1095.117676 814.643860,1102.756958 
	C802.697083,1117.702271 791.577454,1133.306274 779.950989,1148.511841 
	C776.452942,1153.086792 772.389587,1156.375610 765.638916,1155.482910 
	C749.650452,1153.368896 733.564941,1151.996948 717.543152,1150.116455 
	C715.833862,1149.915649 713.630493,1148.739990 712.760132,1147.333618 
	C690.429565,1111.247803 667.263672,1075.614014 650.589050,1036.366333 
	C642.660461,1017.704712 634.944397,998.952881 626.915039,979.722290 
	C651.769226,964.491394 679.860474,952.945068 705.205566,935.744202 
	C705.625549,936.542175 706.370667,937.755188 706.929199,939.048706 
	C717.736816,964.078857 728.469727,989.141663 739.370605,1014.131104 
	C740.993530,1017.851624 743.386475,1021.236328 745.423157,1024.776367 
	C745.979797,1024.653320 746.536438,1024.530273 747.093079,1024.407227 
	C747.093079,1022.760254 747.465820,1021.005127 747.025024,1019.486084 
	C745.542358,1014.375977 747.233093,1009.771790 748.560974,1004.960083 
	C758.959900,967.279053 769.285828,929.577515 779.443420,891.830872 
	C780.906128,886.395508 781.990784,880.697693 782.094666,875.099854 
	C782.213013,868.730530 785.533081,865.144714 790.646301,863.050293 
	C806.183777,856.685730 821.655273,850.058167 837.532898,844.649963 
	C860.653259,836.774963 884.059021,829.720093 907.447449,822.661377 
	C913.561951,820.816101 920.062378,820.249634 925.917297,819.181274 
	C941.141968,844.511902 956.679749,870.363647 973.041443,897.586182 
	C977.332825,884.104858 981.300415,871.640747 985.629150,859.354980 
	C986.661560,862.652283 987.510010,865.746338 987.951660,868.897522 
	C988.352539,871.757996 989.368042,873.259888 992.579773,873.045044 
	C999.795715,872.562317 1007.122192,872.908325 1014.216980,871.761841 
	C1018.109131,871.132812 1022.463440,868.913757 1025.063965,866.021973 
	C1027.553833,863.253235 1028.044312,858.686340 1029.413452,854.909729 
M976.000977,1023.460632 
	C975.320618,1030.632935 974.685242,1037.809937 973.950195,1044.976562 
	C972.666077,1057.495728 971.232910,1070.000244 970.031067,1082.527100 
	C969.200378,1091.186035 968.717957,1099.878052 967.966064,1108.545288 
	C966.691711,1123.234375 965.334839,1137.916504 963.997681,1152.600098 
	C963.391052,1159.261841 962.694336,1165.916138 962.181030,1172.584839 
	C962.104492,1173.578613 962.592346,1174.789917 963.192505,1175.635498 
	C972.100403,1188.187744 980.882751,1200.836060 990.094360,1213.163208 
	C996.134033,1221.245605 1002.816040,1228.848145 1009.622803,1237.169678 
	C1011.303284,1234.879028 1012.218140,1233.598022 1013.167603,1232.343140 
	C1023.560242,1218.607056 1034.124268,1204.996094 1044.276123,1191.084351 
	C1048.567993,1185.203003 1052.565552,1178.965454 1051.055054,1170.873535 
	C1050.068726,1165.590454 1049.499390,1160.212891 1049.035278,1154.852295 
	C1047.931641,1142.098877 1047.020630,1129.328857 1045.995850,1116.568359 
	C1044.682495,1100.216797 1043.266235,1083.873047 1042.024536,1067.516113 
	C1041.227783,1057.018799 1040.681274,1046.502930 1039.991699,1035.997314 
	C1039.690308,1031.407593 1039.369507,1026.817749 1038.956787,1022.237000 
	C1037.663330,1007.883240 1036.279907,993.537415 1035.014648,979.181213 
	C1034.251099,970.515381 1033.783325,961.821960 1032.929810,953.165894 
	C1031.743774,941.136108 1030.472656,929.110474 1028.953369,917.119080 
	C1027.626221,906.643372 1025.962280,896.208679 1024.319702,885.775879 
	C1023.896423,883.088074 1023.783691,879.516785 1022.078064,878.111633 
	C1020.525635,876.832703 1017.004395,877.982849 1014.350830,877.993164 
	C1008.047974,878.017517 1001.744995,878.000977 995.052490,878.000977 
	C994.339233,884.413940 993.822083,890.563599 992.942627,896.660950 
	C991.063293,909.691040 988.841553,922.672791 987.048889,935.714050 
	C985.183960,949.281189 983.699219,962.900085 981.974976,976.487122 
	C980.026123,991.844299 977.995911,1007.191162 976.000977,1023.460632 
z"/>
<path fill="#FFFFFF" opacity="1.000000" stroke="none" 
	d="
M1101.870850,689.990845 
	C1104.661865,688.661560 1107.017822,687.263794 1109.464478,686.048523 
	C1121.774780,679.934204 1124.715698,667.912964 1127.923218,656.268921 
	C1130.910034,645.426270 1133.265503,634.407349 1135.776245,623.437988 
	C1136.209595,621.544556 1136.031128,619.511108 1136.149292,617.276001 
	C1138.609375,617.276001 1141.022339,617.276001 1143.683228,617.276001 
	C1144.447021,623.133484 1145.269531,629.052734 1145.952393,634.988098 
	C1146.098389,636.257690 1146.205200,637.929749 1145.539062,638.832642 
	C1139.537354,646.965942 1139.794922,656.809631 1138.070801,666.044800 
	C1134.552856,684.889160 1131.879639,704.025818 1124.447876,721.773987 
	C1117.333618,738.764465 1104.054565,750.859131 1088.958496,761.008972 
	C1071.460571,772.773926 1052.407104,780.385132 1031.417480,783.028870 
	C1024.657104,783.880371 1017.955994,785.255737 1011.181824,785.932678 
	C1001.444153,786.905762 992.122070,784.270508 982.771301,782.011230 
	C966.378296,778.050415 950.134216,773.755615 934.972229,766.036011 
	C919.710571,758.265686 907.216309,747.337585 897.241089,733.565979 
	C883.004028,713.910461 875.837463,691.346252 871.016174,667.894775 
	C869.002869,658.101562 867.018555,648.299438 865.272949,638.456726 
	C864.927002,636.506165 865.756897,634.354431 866.001160,632.290344 
	C866.682861,626.529053 867.341675,620.765198 868.020142,614.911560 
	C871.466858,615.890991 874.350952,616.710571 877.303040,617.549500 
	C878.160461,624.025391 879.290283,630.920532 879.948486,637.860352 
	C881.462402,653.822205 887.904297,667.693787 896.350098,681.141968 
	C903.326538,692.250610 914.134888,695.670227 925.471252,697.825684 
	C942.795166,701.119629 958.618652,695.957458 973.546814,687.168091 
	C980.905518,682.835510 984.217102,675.800049 986.929016,668.457825 
	C992.990479,652.046692 996.758240,635.153015 996.023132,617.490845 
	C995.989929,616.692505 996.194946,615.884216 996.180664,616.005798 
	C1001.388855,616.005798 1006.296082,616.100586 1011.197266,615.968933 
	C1013.978699,615.894287 1014.702515,617.023193 1015.088867,619.743103 
	C1017.229858,634.814392 1019.293213,649.915283 1022.148560,664.859802 
	C1023.970703,674.397095 1031.743286,679.601746 1039.642944,683.821472 
	C1047.389526,687.959473 1055.430298,691.680664 1063.647949,694.770874 
	C1075.242920,699.130920 1086.496948,695.791321 1097.532959,691.808838 
	C1098.888184,691.319763 1100.164673,690.612610 1101.870850,689.990845 
z"/>
<path fill="#FFFFFF" opacity="1.000000" stroke="none" 
	d="
M990.844482,592.554016 
	C987.458862,587.412354 982.059143,588.379089 977.717041,588.202271 
	C963.912476,587.640198 950.064697,587.737854 936.244751,588.060791 
	C919.739868,588.446411 903.243652,589.267395 886.749756,590.030640 
	C881.692810,590.264587 876.655762,590.928833 870.257996,591.521118 
	C871.648010,585.138672 872.437988,579.608582 874.080444,574.344421 
	C878.178040,561.211243 881.589966,547.701355 887.340698,535.299561 
	C891.748779,525.793152 899.182007,517.656006 905.500549,509.079895 
	C910.492981,502.303711 915.768677,495.730347 921.118469,489.231476 
	C921.713989,488.508057 924.444824,488.291412 924.795288,488.799255 
	C935.086182,503.707825 950.422607,512.552917 964.904724,522.404480 
	C974.897095,529.202026 984.990662,535.850708 995.039734,542.564880 
	C995.177185,542.656616 995.312988,542.769775 995.466675,542.815186 
	C998.602600,543.742920 1001.741028,544.662109 1004.878906,545.583008 
	C1005.254578,542.724854 1005.786865,539.876953 1005.975830,537.006531 
	C1006.495544,529.112366 1006.871155,521.208740 1007.379883,511.918854 
	C1026.968872,532.609497 1051.665283,542.295776 1078.898315,549.680481 
	C1079.752075,544.531799 1080.680176,538.933960 1081.705933,532.747864 
	C1082.751709,533.316711 1084.190430,533.696045 1085.035400,534.618896 
	C1099.387695,550.294312 1116.931030,561.940308 1134.375610,573.689575 
	C1136.914551,575.399597 1138.158081,576.333252 1137.331055,580.099243 
	C1136.489136,583.934326 1138.193115,588.328430 1138.878784,593.156860 
	C1134.063599,592.388611 1129.348267,591.536194 1124.603882,590.900024 
	C1114.451294,589.538757 1104.293213,588.206909 1094.118042,587.030457 
	C1089.392822,586.484131 1084.607422,585.911011 1079.875366,586.080200 
	C1068.866455,586.473755 1057.856079,587.104858 1046.880249,588.039062 
	C1039.468262,588.669861 1032.091553,589.841736 1024.743164,591.041992 
	C1020.614502,591.716370 1018.286865,594.320801 1017.957886,598.710266 
	C1017.542419,604.253479 1012.409424,603.111267 1009.328491,603.758301 
	C1005.020142,604.663208 1000.376892,604.081482 995.884888,603.917786 
	C994.925476,603.882751 993.398438,603.098816 993.164673,602.341431 
	C992.218689,599.276306 991.675720,596.086792 990.844482,592.554016 
z"/>
<path fill="#FFFFFF" opacity="1.000000" stroke="none" 
	d="
M893.227417,666.596436 
	C887.672974,654.188416 885.170227,641.436768 884.002380,628.366394 
	C883.944092,627.714050 883.913086,627.048096 883.754395,626.417480 
	C881.426819,617.171814 884.169434,611.733398 893.037598,608.023743 
	C909.186462,601.268555 925.956726,600.863037 943.024231,602.927612 
	C948.399231,603.577759 953.904297,603.266052 959.240723,604.096313 
	C967.818359,605.430908 976.432251,606.908691 984.746948,609.309326 
	C987.017151,609.964783 989.623840,614.073547 989.741943,616.702454 
	C990.102722,624.729492 990.283020,632.994080 988.757751,640.820129 
	C986.715515,651.298523 983.105347,661.481750 979.989380,671.737366 
	C977.211792,680.879028 969.686401,684.843079 961.547974,687.982422 
	C951.722290,691.772766 941.610718,693.894043 931.008850,692.994507 
	C922.416260,692.265503 913.825256,690.920227 907.043213,685.284302 
	C903.369080,682.231140 900.914978,677.687683 898.003479,673.747864 
	C896.378296,671.548828 894.943481,669.209290 893.227417,666.596436 
z"/>
<path fill="#FFFFFF" opacity="1.000000" stroke="none" 
	d="
M1063.056641,689.021667 
	C1053.220093,684.257446 1043.572510,679.912476 1034.523682,674.556152 
	C1031.550293,672.796204 1028.965210,668.671753 1028.199463,665.189453 
	C1025.050049,650.868591 1022.646851,636.382812 1020.041016,621.944702 
	C1019.780457,620.501343 1020.006104,618.970276 1020.006104,617.094177 
	C1027.040283,613.408020 1033.725830,608.515564 1041.206299,606.262573 
	C1058.854980,600.947144 1077.020142,599.824646 1095.494019,601.803894 
	C1104.446533,602.763123 1113.057251,604.215027 1121.143555,608.082031 
	C1124.314453,609.598450 1127.350708,611.561646 1130.065918,613.787720 
	C1131.193481,614.712097 1132.109863,617.045715 1131.781250,618.417114 
	C1128.417236,632.454956 1124.231934,646.316040 1121.366089,660.447571 
	C1118.436768,674.893127 1109.196777,682.538879 1096.205688,686.944824 
	C1085.508179,690.573059 1074.696777,693.175964 1063.056641,689.021667 
z"/>
<path fill="#FDFDFD" opacity="1.000000" stroke="none" 
	d="
M991.901367,816.092773 
	C995.651367,818.845642 999.108765,821.391724 1002.786133,824.099792 
	C986.089355,843.299377 979.467346,866.734009 973.139221,890.302368 
	C972.484985,890.436035 971.830811,890.569702 971.176575,890.703369 
	C956.881836,865.645630 942.572632,840.596008 928.343750,815.500916 
	C927.764160,814.478638 927.552979,812.936523 927.824707,811.792053 
	C929.803467,803.458069 931.950256,795.163879 934.134033,786.499573 
	C953.788635,796.586060 974.879028,801.941528 991.901367,816.092773 
z"/>
<path fill="#FCFCFC" opacity="1.000000" stroke="none" 
	d="
M1010.977539,823.979309 
	C1014.802734,820.171387 1018.076111,815.462708 1022.553711,812.719666 
	C1037.675415,803.456116 1053.217773,794.878845 1068.614380,786.065247 
	C1072.476562,783.854431 1074.522095,784.977356 1075.405762,789.423767 
	C1077.250366,798.705688 1079.522583,807.902649 1081.363525,817.185242 
	C1081.717163,818.968140 1081.320923,821.174561 1080.557251,822.862793 
	C1070.159058,845.847290 1059.635010,868.774780 1048.709473,892.053650 
	C1046.816040,888.959167 1045.355347,885.527405 1043.894653,882.095642 
	C1037.037476,863.248108 1028.775513,845.070007 1017.684998,828.303833 
	C1016.498413,826.509949 1013.976013,825.599670 1011.621826,824.211548 
	C1011.170410,824.143677 1010.977539,823.979309 1010.977539,823.979309 
z"/>
<path fill="#FCFCFC" opacity="1.000000" stroke="none" 
	d="
M982.650024,787.276672 
	C990.940796,789.008911 998.989990,792.176636 1006.779541,791.631653 
	C1020.429077,790.676636 1033.938599,787.551453 1047.466187,785.110474 
	C1052.489380,784.203979 1057.398560,782.665039 1062.432251,781.396301 
	C1063.773804,785.223022 1061.702393,786.236389 1059.393311,787.542175 
	C1048.546021,793.676331 1037.473389,799.498840 1027.121826,806.394226 
	C1019.328064,811.585876 1012.504272,818.233765 1005.616516,823.929260 
	C988.913574,808.286743 968.688782,797.482117 946.647217,789.985779 
	C946.647217,786.228149 946.647217,782.647705 946.647217,778.334656 
	C958.726440,781.284912 970.509033,784.162659 982.650024,787.276672 
z"/>
<path fill="#F4F4F4" opacity="1.000000" stroke="none" 
	d="
M613.575439,752.408447 
	C626.391602,791.998840 639.050415,831.222107 651.792725,870.704041 
	C650.030273,871.351135 647.745972,872.189819 645.816284,872.898315 
	C628.316589,821.590942 610.883972,770.480103 593.235046,718.735107 
	C596.955139,717.323486 600.586121,715.945679 603.418213,714.870972 
	C606.839661,727.588745 610.128906,739.815002 613.575439,752.408447 
z"/>
<path fill="#FF0000" opacity="1.000000" stroke="none" 
	d="
M1029.326660,854.555420 
	C1028.044312,858.686340 1027.553833,863.253235 1025.063965,866.021973 
	C1022.463440,868.913757 1018.109131,871.132812 1014.216980,871.761841 
	C1007.122192,872.908325 999.795715,872.562317 992.579773,873.045044 
	C989.368042,873.259888 988.352539,871.757996 987.951660,868.897522 
	C987.510010,865.746338 986.661560,862.652283 985.913147,859.109619 
	C988.336975,853.272949 990.837891,847.859924 993.866089,842.242676 
	C994.600342,841.655640 994.807312,841.272766 995.014282,840.889893 
	C995.014221,840.889893 995.004089,841.005188 995.336975,841.005432 
	C998.644409,840.008728 1001.551025,838.605957 1004.606934,838.094727 
	C1012.284180,836.810181 1018.226685,840.934509 1024.092651,845.034729 
	C1024.092651,845.034729 1023.966797,845.026245 1024.048950,845.293335 
	C1024.444946,845.885193 1024.758789,846.209961 1025.072632,846.534729 
	C1026.461670,849.090210 1027.850830,851.645630 1029.326660,854.555420 
z"/>
<path fill="#AE5B10" opacity="1.000000" stroke="none" 
	d="
M1204.059692,1098.843018 
	C1193.352295,1099.094360 1182.868164,1099.074097 1171.958008,1099.080078 
	C1171.531982,1086.014160 1171.531982,1072.921875 1171.531982,1059.656372 
	C1183.688599,1069.316162 1196.525391,1079.516602 1209.720459,1090.001587 
	C1208.128540,1092.510498 1206.205811,1095.540894 1204.059692,1098.843018 
z"/>
<path fill="#F7F7F7" opacity="1.000000" stroke="none" 
	d="
M1024.205322,844.672852 
	C1018.226685,840.934509 1012.284180,836.810181 1004.606934,838.094727 
	C1001.551025,838.605957 998.644409,840.008728 995.279236,841.001526 
	C996.734741,834.221619 998.781738,832.456360 1005.141113,831.720947 
	C1008.592041,831.321899 1012.008606,830.625488 1016.033447,829.966064 
	C1018.738708,834.650269 1021.528381,839.480652 1024.205322,844.672852 
z"/>
<path fill="#003B22" opacity="1.000000" stroke="none" 
	d="
M1043.602295,882.067383 
	C1045.355347,885.527405 1046.816040,888.959167 1048.679688,892.450317 
	C1048.774170,893.187500 1048.465698,893.865479 1048.018921,894.791870 
	C1045.966309,890.954041 1044.052002,886.867920 1042.138550,882.428345 
	C1042.529663,882.062988 1042.919800,882.051025 1043.602295,882.067383 
z"/>
<path fill="#FCFCFC" opacity="1.000000" stroke="none" 
	d="
M1011.268982,824.223267 
	C1011.112183,824.444275 1010.856812,824.585632 1010.601440,824.727051 
	C1010.566833,824.487000 1010.532288,824.246887 1010.737610,823.993042 
	C1010.977539,823.979309 1011.170410,824.143677 1011.268982,824.223267 
z"/>
<path fill="#F7F7F7" opacity="1.000000" stroke="none" 
	d="
M994.577881,840.901489 
	C994.807312,841.272766 994.600342,841.655640 994.159668,842.294434 
	C993.997742,842.004517 994.069641,841.458801 994.577881,840.901489 
z"/>
<path fill="#F7F7F7" opacity="1.000000" stroke="none" 
	d="
M1025.050537,846.139709 
	C1024.758789,846.209961 1024.444946,845.885193 1024.046631,845.230347 
	C1024.317505,845.181702 1024.672974,845.463196 1025.050537,846.139709 
z"/>
<path fill="#FCFCFC" opacity="1.000000" stroke="none" 
	d="
M535.036255,1550.041992 
	C524.280212,1541.418579 519.449280,1530.525879 519.722107,1517.093140 
	C519.975830,1504.601562 519.705200,1492.100342 519.790405,1479.604248 
	C519.944153,1457.071533 542.263611,1439.220703 564.274597,1443.951050 
	C571.293091,1445.459473 572.679993,1447.179443 572.679810,1454.358032 
	C572.679077,1485.516479 572.595398,1516.675537 572.781677,1547.832886 
	C572.806274,1551.945679 571.319763,1553.844604 567.644775,1554.994019 
	C556.074341,1558.612549 545.294495,1557.307007 535.036255,1550.041992 
z"/>
<path fill="#F7F7F7" opacity="1.000000" stroke="none" 
	d="
M488.772339,1544.965088 
	C488.772339,1488.755005 488.772339,1433.041382 488.772339,1377.099854 
	C494.798615,1377.099854 500.398956,1377.099854 506.207733,1377.099854 
	C506.207733,1436.013916 506.207733,1494.849121 506.207733,1553.849731 
	C500.429260,1553.849731 494.977661,1553.849731 488.772339,1553.849731 
	C488.772339,1550.971680 488.772339,1548.216553 488.772339,1544.965088 
z"/>
<path fill="#FAFAFA" opacity="1.000000" stroke="none" 
	d="
M592.889160,1460.144897 
	C604.026367,1476.666626 605.042847,1494.711548 602.423157,1513.268799 
	C600.813843,1524.668457 596.915161,1535.221191 588.543457,1543.623169 
	C587.989868,1544.178955 587.364807,1544.663696 586.257690,1545.631958 
	C586.257690,1514.794800 586.257690,1484.603882 586.257690,1453.228516 
	C588.736145,1455.789185 590.703369,1457.821655 592.889160,1460.144897 
z"/>
<path fill="#F6F6F6" opacity="1.000000" stroke="none" 
	d="
M1154.563232,1404.000244 
	C1154.563232,1454.101807 1154.563232,1503.703369 1154.563232,1553.661133 
	C1148.555420,1553.661133 1142.997314,1553.661133 1137.013672,1553.661133 
	C1137.013672,1494.981445 1137.013672,1436.282959 1137.013672,1377.226318 
	C1142.468994,1377.226318 1148.211914,1377.226318 1154.563232,1377.226318 
	C1154.563232,1385.950317 1154.563232,1394.725220 1154.563232,1404.000244 
z"/>
<path fill="#F8F8F8" opacity="1.000000" stroke="none" 
	d="
M1221.864380,1457.031616 
	C1221.864380,1453.099487 1221.864380,1449.661743 1221.864380,1445.680420 
	C1229.262695,1448.614746 1233.669312,1453.714722 1236.016113,1460.261597 
	C1237.791260,1465.213745 1239.260498,1470.579590 1239.338867,1475.784302 
	C1239.717529,1500.943848 1239.583862,1526.111450 1239.605225,1551.276123 
	C1239.605835,1552.067627 1239.318115,1552.859497 1239.133545,1553.812744 
	C1233.518555,1553.812744 1228.065674,1553.812744 1221.864380,1553.812744 
	C1221.864380,1521.695190 1221.864380,1489.610596 1221.864380,1457.031616 
z"/>
<path fill="#FAFAFA" opacity="1.000000" stroke="none" 
	d="
M890.920898,1493.814087 
	C891.006775,1502.050171 890.582642,1509.894409 891.105652,1517.675049 
	C892.466980,1537.926514 877.834595,1550.792114 862.857300,1554.995972 
	C856.798706,1556.696289 850.319702,1556.898926 843.590332,1557.845093 
	C843.590332,1539.245117 843.590332,1522.001953 843.590332,1503.881714 
	C848.031677,1503.168213 852.675232,1502.246948 857.362549,1501.703857 
	C868.889221,1500.368164 880.167236,1498.118408 890.920898,1493.814087 
z"/>
<path fill="#F8F8F8" opacity="1.000000" stroke="none" 
	d="
M903.780640,1445.972900 
	C917.123108,1451.426880 921.260864,1462.723145 921.578003,1475.076782 
	C922.247681,1501.169556 921.781799,1527.291504 921.781799,1553.707520 
	C916.097961,1553.707520 910.524109,1553.707520 904.156494,1553.707520 
	C904.156494,1551.960327 904.160278,1550.205811 904.155945,1548.451294 
	C904.097107,1524.643188 904.175964,1500.833252 903.872437,1477.028198 
	C903.803223,1471.602051 902.757141,1466.113892 901.541138,1460.795776 
	C899.983032,1453.981812 895.800659,1448.652466 890.131592,1444.440918 
	C890.314209,1444.029907 890.496887,1443.618774 890.679504,1443.207764 
	C894.919495,1444.099609 899.159424,1444.991577 903.780640,1445.972900 
z"/>
<path fill="#F7F7F7" opacity="1.000000" stroke="none" 
	d="
M828.497437,1508.235107 
	C829.348755,1508.745728 830.159302,1509.309937 830.162048,1509.877930 
	C830.231750,1524.480103 830.217102,1539.082764 830.217102,1553.693848 
	C821.687561,1553.396973 812.588928,1544.422729 811.225159,1535.259644 
	C809.370056,1522.795410 815.874695,1512.387573 828.497437,1508.235107 
z"/>
<path fill="#F9F9F9" opacity="1.000000" stroke="none" 
	d="
M691.409424,1447.406494 
	C701.976318,1443.438477 712.200867,1441.367310 722.738953,1446.182007 
	C726.045410,1447.692627 727.858582,1449.420654 727.742126,1453.566895 
	C727.401550,1465.697266 727.629395,1477.843384 727.610413,1489.983276 
	C727.608154,1491.440430 727.457458,1492.897217 727.363159,1494.576050 
	C713.857788,1494.576050 700.643616,1494.576050 686.818909,1494.576050 
	C686.818909,1486.783447 686.818909,1479.192871 686.818909,1471.602295 
	C686.818909,1465.781738 687.041138,1459.949463 686.736145,1454.145020 
	C686.550842,1450.618530 687.539307,1448.413818 691.409424,1447.406494 
z"/>
<path fill="#F3F3F3" opacity="1.000000" stroke="none" 
	d="
M662.945435,1531.984985 
	C650.396118,1504.942383 655.285339,1468.579224 673.418213,1454.935791 
	C673.418213,1484.992065 673.418213,1514.765137 673.418213,1544.538208 
	C673.054138,1544.794189 672.690063,1545.050049 672.326050,1545.306030 
	C669.260803,1540.973511 666.195557,1536.640991 662.945435,1531.984985 
z"/>
<path fill="#F7F7F7" opacity="1.000000" stroke="none" 
	d="
M740.796814,1492.758179 
	C740.785461,1479.371094 740.785461,1466.462891 740.785461,1453.382935 
	C752.933472,1458.488159 760.757385,1477.307007 758.053406,1494.786499 
	C752.888611,1494.786499 747.628906,1494.830811 742.372559,1494.718750 
	C741.840759,1494.707397 741.329163,1493.753662 740.796814,1492.758179 
z"/>
<path fill="#F9F9F9" opacity="1.000000" stroke="none" 
	d="
M1352.984619,1494.817505 
	C1343.874146,1494.817505 1335.261353,1494.817505 1325.932495,1494.817505 
	C1325.932495,1489.532227 1325.932129,1484.619995 1325.932373,1479.707764 
	C1325.932983,1470.899048 1325.845947,1462.088501 1326.017334,1453.283081 
	C1326.047485,1451.731567 1326.744751,1449.303467 1327.835815,1448.799072 
	C1339.322266,1443.490356 1351.084595,1440.594482 1363.182983,1446.948975 
	C1364.613770,1447.700439 1366.591919,1449.313965 1366.612427,1450.555786 
	C1366.852295,1465.130981 1366.766357,1479.711670 1366.766357,1494.817505 
	C1362.028564,1494.817505 1357.755371,1494.817505 1352.984619,1494.817505 
z"/>
<path fill="#F6F6F6" opacity="1.000000" stroke="none" 
	d="
M1308.993164,1542.093994 
	C1287.479370,1517.623657 1292.476929,1469.216553 1312.653687,1455.139404 
	C1312.653687,1485.028687 1312.653687,1514.748291 1312.653687,1545.222168 
	C1311.310547,1544.090576 1310.281616,1543.223755 1308.993164,1542.093994 
z"/>
<path fill="#F6F6F6" opacity="1.000000" stroke="none" 
	d="
M1397.299561,1479.843872 
	C1397.383789,1484.897461 1397.383789,1489.521851 1397.383789,1494.488770 
	C1391.766235,1494.488770 1386.067017,1494.488770 1380.120605,1494.488770 
	C1380.120605,1480.748779 1380.120605,1467.185059 1380.120605,1452.800659 
	C1390.237061,1459.350586 1395.102051,1468.476074 1397.299561,1479.843872 
z"/>
<path fill="#FAFAFA" opacity="1.000000" stroke="none" 
	d="
M996.309448,1491.000244 
	C996.309509,1508.737305 996.309509,1525.974487 996.309509,1543.590454 
	C973.997253,1530.651978 971.892090,1472.363281 996.309448,1456.352905 
	C996.309448,1468.086914 996.309448,1479.293457 996.309448,1491.000244 
z"/>
<path fill="#F7F7F7" opacity="1.000000" stroke="none" 
	d="
M1454.092773,1463.002197 
	C1454.092896,1457.221924 1454.092896,1451.941162 1454.092896,1446.395508 
	C1460.172974,1446.395508 1465.744507,1446.395508 1471.652222,1446.395508 
	C1471.652222,1482.102051 1471.652222,1517.751221 1471.652222,1553.709717 
	C1465.959717,1553.709717 1460.396973,1553.709717 1454.092773,1553.709717 
	C1454.092773,1523.576904 1454.092773,1493.539307 1454.092773,1463.002197 
z"/>
<path fill="#FF0000" opacity="1.000000" stroke="none" 
	d="
M976.000977,1023.001587 
	C977.995911,1007.191162 980.026123,991.844299 981.974976,976.487122 
	C983.699219,962.900085 985.183960,949.281189 987.048889,935.714050 
	C988.841553,922.672791 991.063293,909.691040 992.942627,896.660950 
	C993.822083,890.563599 994.339233,884.413940 995.052490,878.000977 
	C1001.744995,878.000977 1008.047974,878.017517 1014.350830,877.993164 
	C1017.004395,877.982849 1020.525635,876.832703 1022.078064,878.111633 
	C1023.783691,879.516785 1023.896423,883.088074 1024.319702,885.775879 
	C1025.962280,896.208679 1027.626221,906.643372 1028.953369,917.119080 
	C1030.472656,929.110474 1031.743774,941.136108 1032.929810,953.165894 
	C1033.783325,961.821960 1034.251099,970.515381 1035.014648,979.181213 
	C1036.279907,993.537415 1037.663330,1007.883240 1038.956787,1022.237000 
	C1039.369507,1026.817749 1039.690308,1031.407593 1039.991699,1035.997314 
	C1040.681274,1046.502930 1041.227783,1057.018799 1042.024536,1067.516113 
	C1043.266235,1083.873047 1044.682495,1100.216797 1045.995850,1116.568359 
	C1047.020630,1129.328857 1047.931641,1142.098877 1049.035278,1154.852295 
	C1049.499390,1160.212891 1050.068726,1165.590454 1051.055054,1170.873535 
	C1052.565552,1178.965454 1048.567993,1185.203003 1044.276123,1191.084351 
	C1034.124268,1204.996094 1023.560242,1218.607056 1013.167603,1232.343140 
	C1012.218140,1233.598022 1011.303284,1234.879028 1009.622803,1237.169678 
	C1002.816040,1228.848145 996.134033,1221.245605 990.094360,1213.163208 
	C980.882751,1200.836060 972.100403,1188.187744 963.192505,1175.635498 
	C962.592346,1174.789917 962.104492,1173.578613 962.181030,1172.584839 
	C962.694336,1165.916138 963.391052,1159.261841 963.997681,1152.600098 
	C965.334839,1137.916504 966.691711,1123.234375 967.966064,1108.545288 
	C968.717957,1099.878052 969.200378,1091.186035 970.031067,1082.527100 
	C971.232910,1070.000244 972.666077,1057.495728 973.950195,1044.976562 
	C974.685242,1037.809937 975.320618,1030.632935 976.000977,1023.001587 
z"/>
</svg>